<?xml version="1.0" encoding="UTF-8"?>
<svg version="1.1" xmlns="http://www.w3.org/2000/svg" width="64" height="64">
<path d="M0 0 C21.12 0 42.24 0 64 0 C64 21.12 64 42.24 64 64 C42.88 64 21.76 64 0 64 C0 42.88 0 21.76 0 0 Z " fill="#09191B" transform="translate(0,0)"/>
<path d="M0 0 C1.50046875 0.00386719 1.50046875 0.00386719 3.03125 0.0078125 C4.0315625 0.00523438 5.031875 0.00265625 6.0625 0 C8.53125 0.1328125 8.53125 0.1328125 9.53125 1.1328125 C9.60304964 2.65209288 9.61517007 4.17448732 9.59375 5.6953125 C9.58472656 6.52160156 9.57570313 7.34789062 9.56640625 8.19921875 C9.55480469 8.83730469 9.54320312 9.47539062 9.53125 10.1328125 C10.99005109 9.99173503 12.44828551 9.84478835 13.90625 9.6953125 C14.71835937 9.61410156 15.53046875 9.53289063 16.3671875 9.44921875 C18.57397805 9.24191136 18.57397805 9.24191136 20.53125 8.1328125 C20.90525786 5.8056525 21.23889733 3.47163388 21.53125 1.1328125 C22.53125 0.1328125 22.53125 0.1328125 26.03125 0.0078125 C29.53125 0.1328125 29.53125 0.1328125 30.53125 1.1328125 C30.57217937 3.46578683 30.57366723 5.79986475 30.53125 8.1328125 C28.51302083 8.55598958 26.49479167 8.97916667 24.4765625 9.40234375 C22.16078451 10.05590088 22.16078451 10.05590088 20.53125 13.1328125 C19.99699526 16.57424562 19.85313448 19.93613805 21.59375 23.0078125 C24.42355388 24.65092443 27.36953293 25.35729699 30.53125 26.1328125 C30.57366723 28.46576025 30.57217937 30.79983817 30.53125 33.1328125 C29.53125 34.1328125 29.53125 34.1328125 25.96875 34.1953125 C24.834375 34.1746875 23.7 34.1540625 22.53125 34.1328125 C22.10807292 32.11458333 21.68489583 30.09635417 21.26171875 28.078125 C20.60816162 25.76234701 20.60816162 25.76234701 17.53125 24.1328125 C15.19925612 24.05376186 12.86292378 24.04482481 10.53125 24.1328125 C10.47066406 24.77089844 10.41007812 25.40898438 10.34765625 26.06640625 C10.26386719 26.89269531 10.18007813 27.71898438 10.09375 28.5703125 C10.01253906 29.39402344 9.93132813 30.21773437 9.84765625 31.06640625 C9.53125 33.1328125 9.53125 33.1328125 8.53125 34.1328125 C6.70009117 34.23132421 4.86505067 34.26253879 3.03125 34.2578125 C2.0309375 34.26039062 1.030625 34.26296875 0 34.265625 C-2.46875 34.1328125 -2.46875 34.1328125 -3.46875 33.1328125 C-3.56726171 31.30165367 -3.59847629 29.46661317 -3.59375 27.6328125 C-3.59632812 26.6325 -3.59890625 25.6321875 -3.6015625 24.6015625 C-3.46875 22.1328125 -3.46875 22.1328125 -2.46875 21.1328125 C-0.94946962 21.06101286 0.57292482 21.04889243 2.09375 21.0703125 C2.92003906 21.07933594 3.74632812 21.08835937 4.59765625 21.09765625 C5.55478516 21.11505859 5.55478516 21.11505859 6.53125 21.1328125 C6.53125 18.4928125 6.53125 15.8528125 6.53125 13.1328125 C5.89316406 13.14441406 5.25507813 13.15601563 4.59765625 13.16796875 C3.35822266 13.18150391 3.35822266 13.18150391 2.09375 13.1953125 C0.85818359 13.21271484 0.85818359 13.21271484 -0.40234375 13.23046875 C-2.46875 13.1328125 -2.46875 13.1328125 -3.46875 12.1328125 C-3.56726171 10.30165367 -3.59847629 8.46661317 -3.59375 6.6328125 C-3.59632812 5.6325 -3.59890625 4.6321875 -3.6015625 3.6015625 C-3.42265191 0.27593033 -3.32563217 0.17891059 0 0 Z " fill="#3EF8D8" transform="translate(18.46875,14.8671875)"/>
<path d="M0 0 C3.63 0.33 7.26 0.66 11 1 C11 3.64 11 6.28 11 9 C6.545 9.495 6.545 9.495 2 10 C2 13.63 2 17.26 2 21 C5.63 21 9.26 21 13 21 C13.144375 19.535625 13.28875 18.07125 13.4375 16.5625 C13.875 12.125 13.875 12.125 15 11 C18.52299415 10.73411365 21.17067114 10.63849768 24.4375 12.0625 C26.76643994 14.95038552 26.27050795 17.41576962 26 21 C23.36 21 20.72 21 18 21 C18 21.99 18 22.98 18 24 C17.34 24 16.68 24 16 24 C16 24.66 16 25.32 16 26 C10.86116397 27.28470901 6.87200201 26.90733696 2 25 C-0.5 23.3125 -0.5 23.3125 -2 21 C-2.3125 17.3125 -2.3125 17.3125 -2 14 C-1.67 13.67 -1.34 13.34 -1 13 C-0.95907063 10.66702567 -0.95758277 8.33294775 -1 6 C-0.34 6 0.32 6 1 6 C0.67 4.02 0.34 2.04 0 0 Z " fill="#021815" transform="translate(14,27)"/>
<path d="M0 0 C1.50046875 0.00386719 1.50046875 0.00386719 3.03125 0.0078125 C4.0315625 0.00523438 5.031875 0.00265625 6.0625 0 C8.53125 0.1328125 8.53125 0.1328125 9.53125 1.1328125 C9.60351502 2.98568752 9.6150622 4.84115128 9.59375 6.6953125 C9.58472656 7.70722656 9.57570313 8.71914063 9.56640625 9.76171875 C9.55480469 10.54417969 9.54320312 11.32664062 9.53125 12.1328125 C12.50125 12.1328125 15.47125 12.1328125 18.53125 12.1328125 C18.53125 13.7828125 18.53125 15.4328125 18.53125 17.1328125 C15.53125 16.1328125 15.53125 16.1328125 14.53125 15.1328125 C13.54125 15.6278125 13.54125 15.6278125 12.53125 16.1328125 C12.53125 16.7928125 12.53125 17.4528125 12.53125 18.1328125 C13.19125 18.1328125 13.85125 18.1328125 14.53125 18.1328125 C14.20125 19.1228125 13.87125 20.1128125 13.53125 21.1328125 C11.53125 20.1328125 11.53125 20.1328125 8.53125 18.1328125 C7.84375 16.0078125 7.84375 16.0078125 7.53125 14.1328125 C6.82097656 14.07222656 6.11070313 14.01164062 5.37890625 13.94921875 C4.45980469 13.86542969 3.54070313 13.78164063 2.59375 13.6953125 C1.21896484 13.57349609 1.21896484 13.57349609 -0.18359375 13.44921875 C-2.46875 13.1328125 -2.46875 13.1328125 -3.46875 12.1328125 C-3.56726171 10.30165367 -3.59847629 8.46661317 -3.59375 6.6328125 C-3.59632812 5.6325 -3.59890625 4.6321875 -3.6015625 3.6015625 C-3.42265191 0.27593033 -3.32563217 0.17891059 0 0 Z " fill="#31FDDB" transform="translate(18.46875,14.8671875)"/>
<path d="M0 0 C1.67542976 0.28604898 3.34385343 0.61781233 5 1 C5.25 3.3125 5.25 3.3125 5 6 C2.40112619 8.59887381 -0.57569106 9.76344399 -4 11 C-3.67 11.99 -3.34 12.98 -3 14 C-2.7704918 20.54098361 -2.7704918 20.54098361 -4 23 C-9.33333333 23.35555556 -9.33333333 23.35555556 -11.875 22 C-13.70155697 18.75278761 -13.73424358 15.56038868 -13 12 C-10.875 9 -10.875 9 -8 7 C-4.6875 6.6875 -4.6875 6.6875 -2 7 C-1.855625 6.030625 -1.71125 5.06125 -1.5625 4.0625 C-1 1 -1 1 0 0 Z " fill="#021310" transform="translate(51,16)"/>
<path d="M0 0 C1.65 0.33 3.3 0.66 5 1 C5.57328074 5.69885464 6 10.26322436 6 15 C6.33 15.66 6.66 16.32 7 17 C6.01 17 5.02 17 4 17 C3.67 14.03 3.34 11.06 3 8 C-0.63 8 -4.26 8 -8 8 C-8.33 11.63 -8.66 15.26 -9 19 C-11.87163314 16.12836686 -12.86403 12.98606798 -13 9 C-11.96816396 5.9614994 -10.57890455 3.92096079 -8 2 C-5.09119123 1.40538163 -3.00361434 1.64363898 0 2 C0 1.34 0 0.68 0 0 Z " fill="#03332C" transform="translate(24,8)"/>
<path d="M0 0 C3.5219721 -0.08004482 6.61981469 -0.04005702 10 1 C10 3.31 10 5.62 10 8 C7.36 8 4.72 8 2 8 C2 8.99 2 9.98 2 11 C1.34 11 0.68 11 0 11 C0 11.66 0 12.32 0 13 C-5.34001821 14.33500455 -8.83955235 13.512545 -14 12 C-14 11.34 -14 10.68 -14 10 C-7.565 9.505 -7.565 9.505 -1 9 C-0.67 6.03 -0.34 3.06 0 0 Z " fill="#050405" transform="translate(30,40)"/>
<path d="M0 0 C3.5 0.125 3.5 0.125 4.5 1.125 C4.54092937 3.45797433 4.54241723 5.79205225 4.5 8.125 C3.241875 8.393125 1.98375 8.66125 0.6875 8.9375 C-2.49448801 9.72032537 -4.50244311 10.37835928 -6.5 13.125 C-6.5 12.465 -6.5 11.805 -6.5 11.125 C-9.8 11.125 -13.1 11.125 -16.5 11.125 C-16.5 10.795 -16.5 10.465 -16.5 10.125 C-15.87351562 10.06441406 -15.24703125 10.00382812 -14.6015625 9.94140625 C-13.78429687 9.85761719 -12.96703125 9.77382813 -12.125 9.6875 C-11.31289063 9.60628906 -10.50078125 9.52507813 -9.6640625 9.44140625 C-7.45727195 9.23409886 -7.45727195 9.23409886 -5.5 8.125 C-5.12599214 5.79784 -4.79235267 3.46382138 -4.5 1.125 C-3.5 0.125 -3.5 0.125 0 0 Z " fill="#5FEAD1" transform="translate(44.5,14.875)"/>
<path d="M0 0 C0.515625 0.45375 1.03125 0.9075 1.5625 1.375 C4.57300574 3.38200383 7.50927237 4.12731809 11 5 C11.04241723 7.33294775 11.04092937 9.66702567 11 12 C10 13 10 13 6.4375 13.0625 C5.303125 13.041875 4.16875 13.02125 3 13 C2.731875 11.741875 2.46375 10.48375 2.1875 9.1875 C1.40467463 6.00551199 0.74664072 3.99755689 -2 2 C-1.34 2 -0.68 2 0 2 C0 1.34 0 0.68 0 0 Z " fill="#59EBD0" transform="translate(38,36)"/>
<path d="M0 0 C1.50046875 0.00386719 1.50046875 0.00386719 3.03125 0.0078125 C4.0315625 0.00523438 5.031875 0.00265625 6.0625 0 C8.53125 0.1328125 8.53125 0.1328125 9.53125 1.1328125 C9.60304964 2.65209288 9.61517007 4.17448732 9.59375 5.6953125 C9.58472656 6.52160156 9.57570313 7.34789062 9.56640625 8.19921875 C9.55480469 8.83730469 9.54320312 9.47539062 9.53125 10.1328125 C8.87125 10.1328125 8.21125 10.1328125 7.53125 10.1328125 C7.53125 7.4928125 7.53125 4.8528125 7.53125 2.1328125 C4.56125 2.1328125 1.59125 2.1328125 -1.46875 2.1328125 C-1.46875 5.1028125 -1.46875 8.0728125 -1.46875 11.1328125 C0.84125 11.4628125 3.15125 11.7928125 5.53125 12.1328125 C5.53125 12.4628125 5.53125 12.7928125 5.53125 13.1328125 C-0.62109375 13.23046875 -0.62109375 13.23046875 -2.46875 13.1328125 C-3.46875 12.1328125 -3.46875 12.1328125 -3.6015625 9.6640625 C-3.59898438 8.66375 -3.59640625 7.6634375 -3.59375 6.6328125 C-3.59632812 5.6325 -3.59890625 4.6321875 -3.6015625 3.6015625 C-3.42265191 0.27593033 -3.32563217 0.17891059 0 0 Z " fill="#50F0D4" transform="translate(18.46875,14.8671875)"/>
<path d="M0 0 C2.31 0 4.62 0 7 0 C7.0270043 1.45823212 7.04639787 2.91660675 7.0625 4.375 C7.07410156 5.18710937 7.08570313 5.99921875 7.09765625 6.8359375 C7 9 7 9 6 11 C4.35 11 2.7 11 1 11 C-0.62950412 6.87831311 -1.26264601 4.29299643 0 0 Z " fill="#030403" transform="translate(41,28)"/>
<path d="M0 0 C2.475 0.495 2.475 0.495 5 1 C5.57328074 5.69885464 6 10.26322436 6 15 C6.33 15.66 6.66 16.32 7 17 C6.01 17 5.02 17 4 17 C3.96261719 16.39671875 3.92523437 15.7934375 3.88671875 15.171875 C3.49933456 10.46249855 3.13475784 7.67993312 0 4 C0 2.68 0 1.36 0 0 Z " fill="#062525" transform="translate(24,8)"/>
<path d="M0 0 C0.66 1.32 1.32 2.64 2 4 C1.01 5.485 1.01 5.485 0 7 C-0.33 5.68 -0.66 4.36 -1 3 C-3.31 3 -5.62 3 -8 3 C-8.33 5.31 -8.66 7.62 -9 10 C-9.99 10 -10.98 10 -12 10 C-11.34 7.03 -10.68 4.06 -10 1 C-6.59437148 0.22157062 -3.49234244 -0.09978121 0 0 Z " fill="#00231E" transform="translate(49,13)"/>
<path d="M0 0 C1.98 0 3.96 0 6 0 C6 1.98 6 3.96 6 6 C4.02 6 2.04 6 0 6 C0 4.02 0 2.04 0 0 Z " fill="#38FBDA" transform="translate(42,16)"/>
<path d="M0 0 C0.33 1.98 0.66 3.96 1 6 C-0.98 6 -2.96 6 -5 6 C-5 4.35 -5 2.7 -5 1 C-3 0 -3 0 0 0 Z " fill="#35FBDA" transform="translate(47,42)"/>
<path d="M0 0 C0.9075 0.103125 1.815 0.20625 2.75 0.3125 C2.42 0.9725 2.09 1.6325 1.75 2.3125 C-0.8125 2.9375 -0.8125 2.9375 -3.25 3.3125 C-3.58 6.6125 -3.91 9.9125 -4.25 13.3125 C-7.11206897 7.58836207 -7.11206897 7.58836207 -7.25 5.3125 C-5.16842411 1.64892643 -4.27562648 0.41111793 0 0 Z " fill="#0F252C" transform="translate(18.25,11.6875)"/>
<path d="M0 0 C1.04449911 3.13349732 0.93423645 3.98968256 0 7 C-1.65 7 -3.3 7 -5 7 C-5.33 6.01 -5.66 5.02 -6 4 C-5.34 4 -4.68 4 -4 4 C-4 3.01 -4 2.02 -4 1 C-2.68 1.33 -1.36 1.66 0 2 C0 1.34 0 0.68 0 0 Z " fill="#071212" transform="translate(38,17)"/>
<path d="M0 0 C0.99 0.495 0.99 0.495 2 1 C2 2.32 2 3.64 2 5 C3.32 5.66 4.64 6.32 6 7 C5 8 5 8 2.4375 8.0625 C1.633125 8.041875 0.82875 8.02125 0 8 C0 5.36 0 2.72 0 0 Z " fill="#50F0D4" transform="translate(25,28)"/>
<path d="M0 0 C0.25 2.3125 0.25 2.3125 0 5 C-2 6.8125 -2 6.8125 -4 8 C-4 5.69 -4 3.38 -4 1 C-1 0 -1 0 0 0 Z " fill="#040708" transform="translate(56,17)"/>
<path d="M0 0 C0.33 0 0.66 0 1 0 C1 2.31 1 4.62 1 7 C-0.65 6.67 -2.3 6.34 -4 6 C-3.34 4.68 -2.68 3.36 -2 2 C-1.34 2.33 -0.68 2.66 0 3 C0 2.01 0 1.02 0 0 Z " fill="#030D0C" transform="translate(39,41)"/>
<path d="M0 0 C0.33 0 0.66 0 1 0 C1.12375 1.134375 1.2475 2.26875 1.375 3.4375 C1.58125 4.613125 1.7875 5.78875 2 7 C2.66 7.33 3.32 7.66 4 8 C3.67 8.99 3.34 9.98 3 11 C1.5 10 1.5 10 0 8 C-0.27345479 5.28153765 -0.13491285 2.74322801 0 0 Z " fill="#001C1A" transform="translate(38,28)"/>
<path d="M0 0 C2.0625 0.4375 2.0625 0.4375 4 1 C3.67 1.99 3.34 2.98 3 4 C3 3.34 3 2.68 3 2 C2.34 2 1.68 2 1 2 C1 3.65 1 5.3 1 7 C0.34 6.67 -0.32 6.34 -1 6 C-1.042721 4.33388095 -1.04063832 2.66617115 -1 1 C-0.67 0.67 -0.34 0.34 0 0 Z " fill="#0A0B11" transform="translate(51,16)"/>
</svg>
