<?xml version="1.0" encoding="UTF-8"?>
<svg version="1.1" xmlns="http://www.w3.org/2000/svg" width="64" height="64">
<path d="M0 0 C21.12 0 42.24 0 64 0 C64 21.12 64 42.24 64 64 C42.88 64 21.76 64 0 64 C0 42.88 0 21.76 0 0 Z " fill="#7E503C" transform="translate(0,0)"/>
<path d="M0 0 C17.82 0 35.64 0 54 0 C54 21.12 54 42.24 54 64 C36.84 64 19.68 64 2 64 C1.505 62.515 1.505 62.515 1 61 C-0.65 61 -2.3 61 -4 61 C-4 60.67 -4 60.34 -4 60 C-0.535 59.505 -0.535 59.505 3 59 C3 57.02 3 55.04 3 53 C3.99 53.66 4.98 54.32 6 55 C8.22709526 55.10077776 8.22709526 55.10077776 10.5625 54.75 C11.34753906 54.66234375 12.13257812 54.5746875 12.94140625 54.484375 C15.20964034 54.14126274 15.20964034 54.14126274 17 52 C24 52 24 52 25.8125 52.75 C28.25767517 53.23595301 28.25767517 53.23595301 31.125 51.375 C34.05174542 48.95725379 35.00184314 47.59336471 36 44 C36.66 44 37.32 44 38 44 C38.24979445 42.08591243 38.47408014 40.16848389 38.6875 38.25 C38.81511719 37.18265625 38.94273438 36.1153125 39.07421875 35.015625 C38.98836913 31.52741925 38.1928315 30.59306553 36 28 C36 27.01 36 26.02 36 25 C35.21625 24.938125 34.4325 24.87625 33.625 24.8125 C32.75875 24.544375 31.8925 24.27625 31 24 C29.8125 21.5 29.8125 21.5 29 19 C28.34 18.67 27.68 18.34 27 18 C25.65724831 17.01268258 24.32267727 16.01405257 23 15 C26.75 13 26.75 13 29 13 C28.34 12.01 27.68 11.02 27 10 C24.56282742 10.27034634 24.56282742 10.27034634 22 11 C21.01 12.485 21.01 12.485 20 14 C16.23623656 14.90404122 12.76707039 14.86361811 9 14 C6.33358091 11.67763498 4.64612631 9.11166493 3 6 C1.68 6.33 0.36 6.66 -1 7 C-0.649375 6.401875 -0.29875 5.80375 0.0625 5.1875 C1.33304698 2.89186786 1.33304698 2.89186786 0 0 Z " fill="#6195D7" transform="translate(10,0)"/>
<path d="M0 0 C8.91 1.485 8.91 1.485 18 3 C18 14.88 18 26.76 18 39 C0.84 39 -16.32 39 -34 39 C-34.495 37.515 -34.495 37.515 -35 36 C-36.65 36 -38.3 36 -40 36 C-40 35.67 -40 35.34 -40 35 C-36.535 34.505 -36.535 34.505 -33 34 C-33 32.02 -33 30.04 -33 28 C-32.01 28.66 -31.02 29.32 -30 30 C-27.77290474 30.10077776 -27.77290474 30.10077776 -25.4375 29.75 C-24.65246094 29.66234375 -23.86742188 29.5746875 -23.05859375 29.484375 C-20.79035966 29.14126274 -20.79035966 29.14126274 -19 27 C-12 27 -12 27 -10.1875 27.75 C-7.74232483 28.23595301 -7.74232483 28.23595301 -4.875 26.375 C-1.94825458 23.95725379 -0.99815686 22.59336471 0 19 C0.66 19 1.32 19 2 19 C2.24979445 17.08591243 2.47408014 15.16848389 2.6875 13.25 C2.81511719 12.18265625 2.94273438 11.1153125 3.07421875 10.015625 C2.98836913 6.52741925 2.1928315 5.59306553 0 3 C0 2.01 0 1.02 0 0 Z " fill="#B8A997" transform="translate(46,25)"/>
<path d="M0 0 C3.3 0 6.6 0 10 0 C10.66 1.32 11.32 2.64 12 4 C11.67 4.66 11.34 5.32 11 6 C11.474375 6.391875 11.94875 6.78375 12.4375 7.1875 C14.35265666 9.40908173 14.47691014 11.16036935 15 14 C15.66 14.33 16.32 14.66 17 15 C13.535 17.475 13.535 17.475 10 20 C8.68 19.34 7.36 18.68 6 18 C6.57452746 21.93075644 6.57452746 21.93075644 9 25 C8.9765625 27.3828125 8.9765625 27.3828125 8.625 30.125 C8.51414062 31.03507812 8.40328125 31.94515625 8.2890625 32.8828125 C8.19367187 33.58148438 8.09828125 34.28015625 8 35 C9.32 35.33 10.64 35.66 12 36 C12 36.33 12 36.66 12 37 C12.66 37.33 13.32 37.66 14 38 C14.33 38.99 14.66 39.98 15 41 C14.67 41.66 14.34 42.32 14 43 C13.92805131 45.88370333 13.90708292 48.74239664 13.9375 51.625 C13.94201172 52.42679688 13.94652344 53.22859375 13.95117188 54.0546875 C13.96296832 56.03649006 13.98090395 58.01825433 14 60 C12.515 60.495 12.515 60.495 11 61 C11.33 61.99 11.66 62.98 12 64 C8.04 64 4.08 64 0 64 C0 42.88 0 21.76 0 0 Z " fill="#052543" transform="translate(0,0)"/>
<path d="M0 0 C2.64752004 2.57784846 4.94432065 4.91648098 7 8 C10.68891596 8.64995186 14.29765604 8.52890628 18 8 C20.35631825 6.06283962 20.35631825 6.06283962 22 4 C24.75 4.25 24.75 4.25 27 5 C27 5.99 27 6.98 27 8 C25.35 8.66 23.7 9.32 22 10 C22.5775 10.185625 23.155 10.37125 23.75 10.5625 C26.20129324 12.12860401 26.69891286 13.04293442 28 15.5625 C29.54975505 19.13206089 29.54975505 19.13206089 32.125 19.625 C32.74375 19.74875 33.3625 19.8725 34 20 C35.25 22.5625 35.25 22.5625 36 25 C34.375 26.125 34.375 26.125 32 27 C28.75 26.125 28.75 26.125 26 25 C26.66 24.67 27.32 24.34 28 24 C28 22.02 28 20.04 28 18 C26.02 18 24.04 18 22 18 C22 19.98 22 21.96 22 24 C21.34 24 20.68 24 20 24 C20.33 25.65 20.66 27.3 21 29 C19.35 29.66 17.7 30.32 16 31 C16 30.01 16 29.02 16 28 C13.11424181 28.39803561 12.17810487 28.79009069 10.25 31.0625 C9.8375 31.701875 9.425 32.34125 9 33 C8.67 32.34 8.34 31.68 8 31 C7.67 31.66 7.34 32.32 7 33 C6.443125 32.608125 5.88625 32.21625 5.3125 31.8125 C4.549375 31.544375 3.78625 31.27625 3 31 C0.25167846 32.28184562 0.25167846 32.28184562 -2 34 C-1.67 33.01 -1.34 32.02 -1 31 C-1.99 30.67 -2.98 30.34 -4 30 C-3.96519531 29.32453125 -3.93039062 28.6490625 -3.89453125 27.953125 C-3.86746094 27.06109375 -3.84039062 26.1690625 -3.8125 25.25 C-3.77769531 24.36828125 -3.74289062 23.4865625 -3.70703125 22.578125 C-4.05286018 19.53483037 -5.10530021 18.33814016 -7 16 C-6.6875 13.75 -6.6875 13.75 -6 12 C-3.525 12.99 -3.525 12.99 -1 14 C0.65 12.68 2.3 11.36 4 10 C3.71125 9.44570312 3.4225 8.89140625 3.125 8.3203125 C2.568125 7.23363281 2.568125 7.23363281 2 6.125 C1.62875 5.40570312 1.2575 4.68640625 0.875 3.9453125 C0 2 0 2 0 0 Z " fill="#874B39" transform="translate(12,5)"/>
<path d="M0 0 C13.9631462 -0.68859351 13.9631462 -0.68859351 17.875 1.875 C18.57625 2.57625 19.2775 3.2775 20 4 C20 4.66 20 5.32 20 6 C20.68707031 5.76023437 21.37414062 5.52046875 22.08203125 5.2734375 C22.98308594 4.97695312 23.88414063 4.68046875 24.8125 4.375 C25.70582031 4.07335937 26.59914063 3.77171875 27.51953125 3.4609375 C30 3 30 3 33 5 C33 5.66 33 6.32 33 7 C34.918125 6.9690625 34.918125 6.9690625 36.875 6.9375 C40.75 6.875 40.75 6.875 43 8 C44.70363822 8.22622081 46.41328701 8.40888473 48.125 8.5625 C49.03507812 8.64628906 49.94515625 8.73007813 50.8828125 8.81640625 C51.93082031 8.90728516 51.93082031 8.90728516 53 9 C53 10.32 53 11.64 53 13 C48.05524595 15.02861705 43.29266592 15.86864364 38 15 C35.625 13 35.625 13 34 11 C33.01 11 32.02 11 31 11 C30.67 11.99 30.34 12.98 30 14 C29.34 14 28.68 14 28 14 C27.67 14.99 27.34 15.98 27 17 C25.68 16.34 24.36 15.68 23 15 C26.75 13 26.75 13 29 13 C28.34 12.01 27.68 11.02 27 10 C24.56282742 10.27034634 24.56282742 10.27034634 22 11 C21.01 12.485 21.01 12.485 20 14 C16.23623656 14.90404122 12.76707039 14.86361811 9 14 C6.33358091 11.67763498 4.64612631 9.11166493 3 6 C1.68 6.33 0.36 6.66 -1 7 C-0.649375 6.401875 -0.29875 5.80375 0.0625 5.1875 C1.33304698 2.89186786 1.33304698 2.89186786 0 0 Z " fill="#6897CB" transform="translate(10,0)"/>
<path d="M0 0 C2.02045442 0.60183749 4.02111039 1.27306096 6 2 C6.495 2.99 6.495 2.99 7 4 C7.99 4 8.98 4 10 4 C10 5.32 10 6.64 10 8 C10.99 8 11.98 8 13 8 C13 8.99 13 9.98 13 11 C15.97 10.34 18.94 9.68 22 9 C21.05151367 10.97558594 21.05151367 10.97558594 19 13 C15.93512535 13.35498268 13.23510942 13.46603182 10.17578125 13.390625 C8.88367989 13.38213531 8.88367989 13.38213531 7.56547546 13.37347412 C4.81391852 13.3510813 2.06366337 13.3008808 -0.6875 13.25 C-2.55271557 13.2299387 -4.41795155 13.21168728 -6.28320312 13.1953125 C-10.85597042 13.15120713 -15.4277645 13.08216057 -20 13 C-20.33 12.01 -20.66 11.02 -21 10 C-22.65 10 -24.3 10 -26 10 C-26 9.67 -26 9.34 -26 9 C-22.535 8.505 -22.535 8.505 -19 8 C-19 6.02 -19 4.04 -19 2 C-18.01 2.66 -17.02 3.32 -16 4 C-13.77290474 4.10077776 -13.77290474 4.10077776 -11.4375 3.75 C-10.65246094 3.66234375 -9.86742188 3.5746875 -9.05859375 3.484375 C-6.79035966 3.14126274 -6.79035966 3.14126274 -5 1 C-3.68 1 -2.36 1 -1 1 C-0.67 0.67 -0.34 0.34 0 0 Z " fill="#AEA28F" transform="translate(32,51)"/>
<path d="M0 0 C8.91 1.485 8.91 1.485 18 3 C18.08067765 6.12551199 18.1403399 9.24895891 18.1875 12.375 C18.21263672 13.26445313 18.23777344 14.15390625 18.26367188 15.0703125 C18.27333984 15.92109375 18.28300781 16.771875 18.29296875 17.6484375 C18.3086792 18.43395996 18.32438965 19.21948242 18.34057617 20.02880859 C18.22818604 20.67930176 18.1157959 21.32979492 18 22 C17.01 22.66 16.02 23.32 15 24 C14.63637182 26.20725073 14.63637182 26.20725073 14.8125 28.625 C14.83957031 29.44226563 14.86664063 30.25953125 14.89453125 31.1015625 C14.92933594 31.72804688 14.96414062 32.35453125 15 33 C12.8480563 29.77208445 12.79913557 28.71599191 13 25 C12.34 24.67 11.68 24.34 11 24 C10.63729412 22.00511766 10.30830925 20.00401011 10 18 C9.30514736 15.21776622 9.30514736 15.21776622 8 13 C5.95894361 12.11306697 5.95894361 12.11306697 4 12 C3.71125 10.88625 3.4225 9.7725 3.125 8.625 C2.30758671 4.99708908 2.30758671 4.99708908 0 3 C0 2.01 0 1.02 0 0 Z " fill="#D5E0E1" transform="translate(46,25)"/>
<path d="M0 0 C13.2 0 26.4 0 40 0 C40 2.97 40 5.94 40 9 C21.96149619 9.6172872 21.96149619 9.6172872 17.21875 5.42578125 C16.61546875 4.72001953 16.61546875 4.72001953 16 4 C15.0925 4.33 14.185 4.66 13.25 5 C10 6 10 6 6 6 C6 5.34 6 4.68 6 4 C5.195625 3.71125 4.39125 3.4225 3.5625 3.125 C1 2 1 2 0 0 Z " fill="#6598C8" transform="translate(24,0)"/>
<path d="M0 0 C2.64752004 2.57784846 4.94432065 4.91648098 7 8 C10.68891596 8.64995186 14.29765604 8.52890628 18 8 C20.35631825 6.06283962 20.35631825 6.06283962 22 4 C24.75 4.25 24.75 4.25 27 5 C27 5.99 27 6.98 27 8 C25.35 8.66 23.7 9.32 22 10 C22.5775 10.185625 23.155 10.37125 23.75 10.5625 C26.20129324 12.12860401 26.69891286 13.04293442 28 15.5625 C29.54975505 19.13206089 29.54975505 19.13206089 32.125 19.625 C32.74375 19.74875 33.3625 19.8725 34 20 C35.25 22.5625 35.25 22.5625 36 25 C34.375 26.125 34.375 26.125 32 27 C28.75 26.125 28.75 26.125 26 25 C26.66 24.67 27.32 24.34 28 24 C28 22.02 28 20.04 28 18 C27.01 18 26.02 18 25 18 C24.67 16.68 24.34 15.36 24 14 C18.39 13.67 12.78 13.34 7 13 C7 13.66 7 14.32 7 15 C6.34 15 5.68 15 5 15 C4.67 15.99 4.34 16.98 4 18 C4 17.34 4 16.68 4 16 C2.68 16 1.36 16 0 16 C0.3125 14.125 0.3125 14.125 1 12 C1.99 11.34 2.98 10.68 4 10 C3.71125 9.44570312 3.4225 8.89140625 3.125 8.3203125 C2.568125 7.23363281 2.568125 7.23363281 2 6.125 C1.62875 5.40570312 1.2575 4.68640625 0.875 3.9453125 C0 2 0 2 0 0 Z " fill="#593C33" transform="translate(12,5)"/>
<path d="M0 0 C1.98 0.66 3.96 1.32 6 2 C6 2.66 6 3.32 6 4 C9.465 3.505 9.465 3.505 13 3 C13 2.34 13 1.68 13 1 C14.98 1 16.96 1 19 1 C17.87548273 3.9719385 16.77706209 6.33440687 15 9 C14.34 8.67 13.68 8.34 13 8 C13.7425 8.680625 13.7425 8.680625 14.5 9.375 C16 11 16 11 16 13 C14.68 13 13.36 13 12 13 C12 13.99 12 14.98 12 16 C10.35 16.33 8.7 16.66 7 17 C6.87625 17.639375 6.7525 18.27875 6.625 18.9375 C6.41875 19.618125 6.2125 20.29875 6 21 C5.34 21.33 4.68 21.66 4 22 C4.33 21.01 4.66 20.02 5 19 C4.01 18.67 3.02 18.34 2 18 C2.03480469 17.32453125 2.06960938 16.6490625 2.10546875 15.953125 C2.13253906 15.06109375 2.15960938 14.1690625 2.1875 13.25 C2.22230469 12.36828125 2.25710938 11.4865625 2.29296875 10.578125 C1.94713982 7.53483037 0.89469979 6.33814016 -1 4 C-0.6875 1.75 -0.6875 1.75 0 0 Z " fill="#82594B" transform="translate(6,17)"/>
<path d="M0 0 C0 2.31 0 4.62 0 7 C-3.75 9 -3.75 9 -6 9 C-6.86625 9.495 -6.86625 9.495 -7.75 10 C-10.69173819 11.30743919 -12.81256151 11.3390892 -16 11 C-17.875 9.8125 -17.875 9.8125 -19 8 C-19.1875 5.3125 -19.1875 5.3125 -19 3 C-15.535 2.505 -15.535 2.505 -12 2 C-12.66 1.01 -13.32 0.02 -14 -1 C-8.75507798 -2.19883932 -4.76786121 -2.82539923 0 0 Z " fill="#7F503B" transform="translate(32,45)"/>
<path d="M0 0 C3.3 0 6.6 0 10 0 C10.66 1.32 11.32 2.64 12 4 C11.67 4.66 11.34 5.32 11 6 C11.474375 6.391875 11.94875 6.78375 12.4375 7.1875 C14.35265666 9.40908173 14.47691014 11.16036935 15 14 C15.66 14.33 16.32 14.66 17 15 C16.01 15 15.02 15 14 15 C14 14.34 14 13.68 14 13 C13.401875 13.165 12.80375 13.33 12.1875 13.5 C8.83635654 14.26597565 5.42741429 14 2 14 C2 14.66 2 15.32 2 16 C1.34 16 0.68 16 0 16 C0 10.72 0 5.44 0 0 Z " fill="#04223C" transform="translate(0,0)"/>
<path d="M0 0 C0.99 0.33 1.98 0.66 3 1 C2.34 1 1.68 1 1 1 C1.33 2.32 1.66 3.64 2 5 C2.825 4.835 3.65 4.67 4.5 4.5 C7.23919205 4.10868685 9.51907515 3.98774841 12.25 4.0625 C16.02933595 4.43414746 16.02933595 4.43414746 18 2 C21.125 1.875 21.125 1.875 24 2 C24 5.3 24 8.6 24 12 C16.54621151 12.44722731 9.07674266 11.40986916 2 9 C-1 5.89613035 -1 5.89613035 -1 3 C-1.66 2.67 -2.32 2.34 -3 2 C-2.01 1.34 -1.02 0.68 0 0 Z " fill="#6193C2" transform="translate(40,16)"/>
<path d="M0 0 C0.33 0.66 0.66 1.32 1 2 C1.63421875 2.12890625 2.2684375 2.2578125 2.921875 2.390625 C5 3 5 3 6.265625 4.671875 C9.54945055 11.6043956 9.54945055 11.6043956 9 16 C8.34 16 7.68 16 7 16 C7 15.34 7 14.68 7 14 C6.34 14 5.68 14 5 14 C4.731875 14.598125 4.46375 15.19625 4.1875 15.8125 C3.00082594 17.99847854 1.90400887 19.41332594 0 21 C-0.66 21 -1.32 21 -2 21 C-2.33 21.66 -2.66 22.32 -3 23 C-3.66 22.67 -4.32 22.34 -5 22 C-4.34 17.71 -3.68 13.42 -3 9 C-2.34 9 -1.68 9 -1 9 C-0.67 6.03 -0.34 3.06 0 0 Z " fill="#B9AB9A" transform="translate(49,35)"/>
<path d="M0 0 C2.475 0.99 2.475 0.99 5 2 C5.33 2.99 5.66 3.98 6 5 C7.32 5 8.64 5 10 5 C10 3.35 10 1.7 10 0 C11.32 0.33 12.64 0.66 14 1 C14 4.3 14 7.6 14 11 C13.01 11.33 12.02 11.66 11 12 C11.33 12.99 11.66 13.98 12 15 C8.04 15 4.08 15 0 15 C0 10.05 0 5.1 0 0 Z " fill="#0D5388" transform="translate(0,49)"/>
<path d="M0 0 C1.98 0.99 3.96 1.98 6 3 C6 3.66 6 4.32 6 5 C4.02 5.66 2.04 6.32 0 7 C0.33 7.99 0.66 8.98 1 10 C-2.69541586 10.95024979 -5.30458414 10.95024979 -9 10 C-9.33 9.01 -9.66 8.02 -10 7 C-10.66 7 -11.32 7 -12 7 C-12 8.65 -12 10.3 -12 12 C-12.99 11.67 -13.98 11.34 -15 11 C-16.89212737 10.77820215 -18.78884472 10.59385985 -20.6875 10.4375 C-21.68136719 10.35371094 -22.67523438 10.26992188 -23.69921875 10.18359375 C-24.45847656 10.12300781 -25.21773437 10.06242187 -26 10 C-26 9.67 -26 9.34 -26 9 C-22.535 8.505 -22.535 8.505 -19 8 C-19 6.02 -19 4.04 -19 2 C-18.01 2.66 -17.02 3.32 -16 4 C-13.77290474 4.10077776 -13.77290474 4.10077776 -11.4375 3.75 C-10.65246094 3.66234375 -9.86742188 3.5746875 -9.05859375 3.484375 C-6.79035966 3.14126274 -6.79035966 3.14126274 -5 1 C-3.68 1 -2.36 1 -1 1 C-0.67 0.67 -0.34 0.34 0 0 Z " fill="#BDAA96" transform="translate(32,51)"/>
<path d="M0 0 C0.99 0.33 1.98 0.66 3 1 C1.68 3.64 0.36 6.28 -1 9 C-2.32 8.67 -3.64 8.34 -5 8 C-5.639375 8.33 -6.27875 8.66 -6.9375 9 C-9.64021335 10.31040647 -11.17002588 9.78610392 -14 9 C-14 9.66 -14 10.32 -14 11 C-13.34 11.33 -12.68 11.66 -12 12 C-12.99 12 -13.98 12 -15 12 C-13.68 13.32 -12.36 14.64 -11 16 C-11.33 16.66 -11.66 17.32 -12 18 C-12.99 18 -13.98 18 -15 18 C-15 17.34 -15 16.68 -15 16 C-16.65 16.33 -18.3 16.66 -20 17 C-19.125 10.25 -19.125 10.25 -18 8 C-18.66 7.67 -19.32 7.34 -20 7 C-19.34 6.01 -18.68 5.02 -18 4 C-16.68 4.99 -15.36 5.98 -14 7 C-13.67 6.01 -13.34 5.02 -13 4 C-12.34 4.33 -11.68 4.66 -11 5 C-10.34 4.01 -9.68 3.02 -9 2 C-5.875 1.3125 -5.875 1.3125 -3 1 C-2.67 1.66 -2.34 2.32 -2 3 C-1.34 2.01 -0.68 1.02 0 0 Z " fill="#A56050" transform="translate(33,31)"/>
<path d="M0 0 C2.475 0.99 2.475 0.99 5 2 C5 2.66 5 3.32 5 4 C6.27875 3.979375 7.5575 3.95875 8.875 3.9375 C12.75 3.875 12.75 3.875 15 5 C16.70363822 5.22622081 18.41328701 5.40888473 20.125 5.5625 C21.03507812 5.64628906 21.94515625 5.73007813 22.8828125 5.81640625 C23.58148438 5.87699219 24.28015625 5.93757812 25 6 C25 7.32 25 8.64 25 10 C20.05937366 12.02692363 15.26793712 13.17262681 10 12 C5.77972312 9.43176313 2.74712247 6.46311483 0.5 2.0625 C0.335 1.381875 0.17 0.70125 0 0 Z " fill="#B3BFCA" transform="translate(38,3)"/>
<path d="M0 0 C0.33 0.66 0.66 1.32 1 2 C2.65 1.34 4.3 0.68 6 0 C7.59789351 4.95346987 6.28306814 9.13282415 5 14 C4.34 14 3.68 14 3 14 C3 14.99 3 15.98 3 17 C2.34 16.67 1.68 16.34 1 16 C0.375 13.9375 0.375 13.9375 0 12 C-0.5775 12.515625 -1.155 13.03125 -1.75 13.5625 C-4 15 -4 15 -6.25 14.6875 C-6.8275 14.460625 -7.405 14.23375 -8 14 C-7.690625 13.0925 -7.38125 12.185 -7.0625 11.25 C-5.52182724 6.71076409 -5.52182724 6.71076409 -5 2 C-4.34 2 -3.68 2 -3 2 C-3 2.99 -3 3.98 -3 5 C-1.68 4.67 -0.36 4.34 1 4 C0.34 3.34 -0.32 2.68 -1 2 C-0.67 1.34 -0.34 0.68 0 0 Z " fill="#764D39" transform="translate(43,30)"/>
<path d="M0 0 C0.66 0.33 1.32 0.66 2 1 C3.41687119 5.25061356 2.19320039 7.71851625 1 12 C0.01 12 -0.98 12 -2 12 C-2 13.65 -2 15.3 -2 17 C-6 17 -6 17 -8.125 15.0625 C-8.74375 14.381875 -9.3625 13.70125 -10 13 C-10.66 12.67 -11.32 12.34 -12 12 C-12 9.69 -12 7.38 -12 5 C-8.04 6.98 -8.04 6.98 -4 9 C-3.34 7.35 -2.68 5.7 -2 4 C-2.66 3.67 -3.32 3.34 -4 3 C-2 1 -2 1 0 0 Z " fill="#083B5D" transform="translate(12,37)"/>
<path d="M0 0 C4.95 0 9.9 0 15 0 C15 2.97 15 5.94 15 9 C14.13375 8.690625 13.2675 8.38125 12.375 8.0625 C9.07962174 6.88609383 9.07962174 6.88609383 5.8125 6.75 C4.884375 6.5025 3.95625 6.255 3 6 C2.01 4.02 1.02 2.04 0 0 Z " fill="#1E5A2F" transform="translate(49,0)"/>
<path d="M0 0 C0.99 0.66 1.98 1.32 3 2 C2.34 2 1.68 2 1 2 C0.95745644 3.99954746 0.95919217 6.00041636 1 8 C1.33 8.33 1.66 8.66 2 9 C2.33 8.01 2.66 7.02 3 6 C4.32 6 5.64 6 7 6 C7.309375 5.38125 7.61875 4.7625 7.9375 4.125 C8.625 2.75 9.3125 1.375 10 0 C10.66 0.33 11.32 0.66 12 1 C11.360625 1.886875 10.72125 2.77375 10.0625 3.6875 C8.19170243 6.69211428 7.40576034 8.5510371 7 12 C5.02 12.33 3.04 12.66 1 13 C1 12.01 1 11.02 1 10 C0.01 10 -0.98 10 -2 10 C-2 8.68 -2 7.36 -2 6 C-2.99 6 -3.98 6 -5 6 C-3.86695008 2.60085025 -2.87481525 1.94745549 0 0 Z " fill="#A0917E" transform="translate(44,49)"/>
<path d="M0 0 C1.32 0.33 2.64 0.66 4 1 C4 1.66 4 2.32 4 3 C4.66 3.33 5.32 3.66 6 4 C4.02 5.32 2.04 6.64 0 8 C-1.32 7.34 -2.64 6.68 -4 6 C-3.42547254 9.93075644 -3.42547254 9.93075644 -1 13 C-0.875 16.125 -0.875 16.125 -1 19 C-1.33 19 -1.66 19 -2 19 C-2.33 17.35 -2.66 15.7 -3 14 C-3.99 13.67 -4.98 13.34 -6 13 C-6.73046875 11.00390625 -6.73046875 11.00390625 -7.1875 8.5625 C-7.34605469 7.75941406 -7.50460938 6.95632812 -7.66796875 6.12890625 C-8 4 -8 4 -8 2 C-3.25 0.875 -3.25 0.875 -1 2 C-0.67 1.34 -0.34 0.68 0 0 Z " fill="#0E1E30" transform="translate(10,12)"/>
<path d="M0 0 C0.33 0 0.66 0 1 0 C2.25 6.625 2.25 6.625 0 10 C-2.05859375 10.6171875 -2.05859375 10.6171875 -4.4375 10.875 C-5.21996094 10.97554687 -6.00242187 11.07609375 -6.80859375 11.1796875 C-9 11 -9 11 -10.7734375 9.67578125 C-12.4389092 7.4003438 -12.22294843 5.74969732 -12 3 C-10.35 2.67 -8.7 2.34 -7 2 C-5.68 3.98 -4.36 5.96 -3 8 C-2.87625 7.4225 -2.7525 6.845 -2.625 6.25 C-1.99351176 3.97664233 -1.11141809 2.0746471 0 0 Z " fill="#7C392F" transform="translate(25,45)"/>
<path d="M0 0 C3.3 0 6.6 0 10 0 C10.66 1.32 11.32 2.64 12 4 C10.35 5.32 8.7 6.64 7 8 C6.67 7.34 6.34 6.68 6 6 C5.01 6.33 4.02 6.66 3 7 C1.78130071 9.50447516 1.78130071 9.50447516 1 12 C0.67 12 0.34 12 0 12 C0 8.04 0 4.08 0 0 Z " fill="#011D35" transform="translate(0,0)"/>
<path d="M0 0 C2.00720923 0.28674418 4.0085944 0.61866701 6 1 C6 3.31 6 5.62 6 8 C6.66 6.68 7.32 5.36 8 4 C8.12375 4.94875 8.2475 5.8975 8.375 6.875 C8.71687177 10.08667191 8.71687177 10.08667191 11 12 C9.35 12.33 7.7 12.66 6 13 C6 12.01 6 11.02 6 10 C5.34 10 4.68 10 4 10 C4.33 10.99 4.66 11.98 5 13 C4.34 13 3.68 13 3 13 C2.67 11.68 2.34 10.36 2 9 C0.68 9 -0.64 9 -2 9 C-2 8.34 -2 7.68 -2 7 C-1.34 7 -0.68 7 0 7 C-0.185625 6.030625 -0.37125 5.06125 -0.5625 4.0625 C-0.706875 3.051875 -0.85125 2.04125 -1 1 C-0.67 0.67 -0.34 0.34 0 0 Z " fill="#845C4B" transform="translate(34,22)"/>
<path d="M0 0 C4.29 0 8.58 0 13 0 C13 4.29 13 8.58 13 13 C10.34194903 10.34194903 7.97952234 7.61509916 5.59765625 4.71875 C3.7455204 2.62429689 3.7455204 2.62429689 0 0 Z " fill="#113949" transform="translate(51,33)"/>
<path d="M0 0 C0 5.61 0 11.22 0 17 C-2.31 17 -4.62 17 -7 17 C-6.34 15.02 -5.68 13.04 -5 11 C-4.34 11 -3.68 11 -3 11 C-3.33 8.03 -3.66 5.06 -4 2 C-1 0 -1 0 0 0 Z " fill="#7D9EBE" transform="translate(64,47)"/>
<path d="M0 0 C6.27 0 12.54 0 19 0 C19 0.66 19 1.32 19 2 C17.58774074 2.67595315 16.16997095 3.34040059 14.75 4 C13.56664062 4.556875 13.56664062 4.556875 12.359375 5.125 C10 6 10 6 6 6 C6 5.34 6 4.68 6 4 C5.195625 3.71125 4.39125 3.4225 3.5625 3.125 C1 2 1 2 0 0 Z " fill="#245B39" transform="translate(24,0)"/>
<path d="M0 0 C3.63 0.33 7.26 0.66 11 1 C11.33 2.65 11.66 4.3 12 6 C11.39671875 5.98839844 10.7934375 5.97679687 10.171875 5.96484375 C9.37265625 5.95582031 8.5734375 5.94679688 7.75 5.9375 C6.96109375 5.92589844 6.1721875 5.91429687 5.359375 5.90234375 C3.09308998 5.99614694 1.1711105 6.36758937 -1 7 C-0.67 4.69 -0.34 2.38 0 0 Z " fill="#5899E4" transform="translate(44,15)"/>
<path d="M0 0 C0.33 1.32 0.66 2.64 1 4 C2.93330603 5.09166275 2.93330603 5.09166275 5 6 C7 9 7 9 7 12 C5.02 12 3.04 12 1 12 C0.67 13.65 0.34 15.3 0 17 C-1.41377341 14.36095629 -2.37240135 11.92879371 -3 9 C-2.34 9 -1.68 9 -1 9 C-0.67 6.03 -0.34 3.06 0 0 Z " fill="#B5A491" transform="translate(49,35)"/>
<path d="M0 0 C1.32 0 2.64 0 4 0 C5.59765625 1.609375 5.59765625 1.609375 7.0625 3.75 C7.54847656 4.44609375 8.03445312 5.1421875 8.53515625 5.859375 C9.01855469 6.56578125 9.50195312 7.2721875 10 8 C10.99408565 9.33774867 11.99236202 10.67242948 13 12 C11.02 12.99 11.02 12.99 9 14 C7.02 11.36 5.04 8.72 3 6 C1.68 6.33 0.36 6.66 -1 7 C-0.649375 6.401875 -0.29875 5.80375 0.0625 5.1875 C1.33304698 2.89186786 1.33304698 2.89186786 0 0 Z " fill="#B9D6E1" transform="translate(10,0)"/>
<path d="M0 0 C2.375 0.25 2.375 0.25 5 1 C6.3125 3.0625 6.3125 3.0625 7 5 C6.01 5.66 5.02 6.32 4 7 C3.67 7.66 3.34 8.32 3 9 C2.34 9 1.68 9 1 9 C0.67 10.32 0.34 11.64 0 13 C-0.61875 12.649375 -1.2375 12.29875 -1.875 11.9375 C-2.57625 11.628125 -3.2775 11.31875 -4 11 C-4.99 11.495 -4.99 11.495 -6 12 C-6 11.01 -6 10.02 -6 9 C-5.0409375 8.5978125 -5.0409375 8.5978125 -4.0625 8.1875 C-1.66868314 7.11332248 -1.66868314 7.11332248 -1 4 C0.32 4.33 1.64 4.66 3 5 C3 4.34 3 3.68 3 3 C2.01 2.67 1.02 2.34 0 2 C0 1.34 0 0.68 0 0 Z " fill="#7A4D39" transform="translate(19,25)"/>
<path d="M0 0 C1.65 0 3.3 0 5 0 C6.32 2.31 7.64 4.62 9 7 C11.31 7 13.62 7 16 7 C15.67 8.32 15.34 9.64 15 11 C12.14499779 11.53531291 10.74213966 11.7739497 8 11 C4.90190364 8.33294314 2.33191392 5.35553328 0 2 C0 1.34 0 0.68 0 0 Z " fill="#5C98DC" transform="translate(14,0)"/>
<path d="M0 0 C0.99 0.66 1.98 1.32 3 2 C4.71444889 2.43738696 6.44667784 2.80848688 8.1875 3.125 C9.08855469 3.29257812 9.98960938 3.46015625 10.91796875 3.6328125 C11.60503906 3.75398438 12.29210937 3.87515625 13 4 C13 4.66 13 5.32 13 6 C11.68 6.33 10.36 6.66 9 7 C9 6.34 9 5.68 9 5 C8.34 5 7.68 5 7 5 C7 6.65 7 8.3 7 10 C6.01 9.67 5.02 9.34 4 9 C2.10787263 8.77820215 0.21115528 8.59385985 -1.6875 8.4375 C-2.68136719 8.35371094 -3.67523438 8.26992188 -4.69921875 8.18359375 C-5.45847656 8.12300781 -6.21773438 8.06242187 -7 8 C-7 7.67 -7 7.34 -7 7 C-3.535 6.505 -3.535 6.505 0 6 C0 4.02 0 2.04 0 0 Z " fill="#C5C9C4" transform="translate(13,53)"/>
<path d="M0 0 C2 1.8125 2 1.8125 4 4 C4 4.99 4 5.98 4 7 C4.99 7.33 5.98 7.66 7 8 C6.01 8 5.02 8 4 8 C5.32 9.32 6.64 10.64 8 12 C7.67 12.66 7.34 13.32 7 14 C6.01 14 5.02 14 4 14 C4 13.34 4 12.68 4 12 C2.35 12.33 0.7 12.66 -1 13 C-0.125 6.25 -0.125 6.25 1 4 C0.34 3.67 -0.32 3.34 -1 3 C-0.67 2.01 -0.34 1.02 0 0 Z " fill="#8C5F52" transform="translate(14,35)"/>
<path d="M0 0 C2.3125 0.1875 2.3125 0.1875 5 1 C6.03013277 2.64821244 7.03114628 4.31503702 8 6 C8.680625 6.165 9.36125 6.33 10.0625 6.5 C11.0215625 6.7475 11.0215625 6.7475 12 7 C13.25 9.5625 13.25 9.5625 14 12 C12.375 13.125 12.375 13.125 10 14 C6.75 13.125 6.75 13.125 4 12 C4.66 11.67 5.32 11.34 6 11 C6 9.02 6 7.04 6 5 C5.01 5 4.02 5 3 5 C2.87625 4.360625 2.7525 3.72125 2.625 3.0625 C2.315625 2.0415625 2.315625 2.0415625 2 1 C1.34 0.67 0.68 0.34 0 0 Z " fill="#452E27" transform="translate(34,18)"/>
<path d="M0 0 C2.6015625 0.2421875 2.6015625 0.2421875 5.625 0.875 C6.62789062 1.07867188 7.63078125 1.28234375 8.6640625 1.4921875 C9.43492188 1.65976562 10.20578125 1.82734375 11 2 C11.33 3.32 11.66 4.64 12 6 C11.2575 5.773125 10.515 5.54625 9.75 5.3125 C6.94085007 4.70523302 6.94085007 4.70523302 4.6875 6.4375 C4.130625 6.953125 3.57375 7.46875 3 8 C3 7.34 3 6.68 3 6 C1.68 6 0.36 6 -1 6 C-1.625 4.125 -1.625 4.125 -2 2 C-1.34 1.34 -0.68 0.68 0 0 Z " fill="#6D3D30" transform="translate(25,17)"/>
<path d="M0 0 C0 2.31 0 4.62 0 7 C-4.8333472 7.08333357 -9.23692563 6.95261487 -14 6 C-14 5.67 -14 5.34 -14 5 C-13.195625 4.87625 -12.39125 4.7525 -11.5625 4.625 C-10.716875 4.41875 -9.87125 4.2125 -9 4 C-8.67 3.34 -8.34 2.68 -8 2 C-6.34385343 1.61781233 -4.67542976 1.28604898 -3 1 C-1 0 -1 0 0 0 Z " fill="#6EA0CD" transform="translate(64,21)"/>
<path d="M0 0 C1.8161982 0.42188459 3.62794073 0.86299165 5.4375 1.3125 C6.44683594 1.55613281 7.45617187 1.79976562 8.49609375 2.05078125 C9.32238281 2.36402344 10.14867187 2.67726562 11 3 C11.33 3.99 11.66 4.98 12 6 C8.04 6 4.08 6 0 6 C0 4.02 0 2.04 0 0 Z " fill="#326997" transform="translate(0,58)"/>
<path d="M0 0 C3 1 3 1 4.6875 4.0625 C5.120625 5.031875 5.55375 6.00125 6 7 C1.71 7 -2.58 7 -7 7 C-7.33 6.01 -7.66 5.02 -8 4 C-5.36 4 -2.72 4 0 4 C0 2.68 0 1.36 0 0 Z " fill="#7E9DB4" transform="translate(19,57)"/>
<path d="M0 0 C2.97 0.495 2.97 0.495 6 1 C5.21654285 2.17219543 4.42297164 3.33763668 3.625 4.5 C3.18414063 5.1496875 2.74328125 5.799375 2.2890625 6.46875 C1.86367187 6.9740625 1.43828125 7.479375 1 8 C0.34 8 -0.32 8 -1 8 C-1 8.66 -1 9.32 -1 10 C-1.66 10 -2.32 10 -3 10 C-2.25 3.375 -2.25 3.375 0 0 Z " fill="#465E70" transform="translate(3,6)"/>
<path d="M0 0 C1.32 0 2.64 0 4 0 C1.89285714 5.99725275 1.89285714 5.99725275 -1 8 C-3.1875 7.6875 -3.1875 7.6875 -5 7 C-5.33 7.66 -5.66 8.32 -6 9 C-6.33 7.68 -6.66 6.36 -7 5 C-6.34 5 -5.68 5 -5 5 C-4.67 4.01 -4.34 3.02 -4 2 C-3.34 2.33 -2.68 2.66 -2 3 C-1.34 2.01 -0.68 1.02 0 0 Z " fill="#DE6866" transform="translate(24,33)"/>
<path d="M0 0 C1.98 0.66 3.96 1.32 6 2 C5.79375 2.5775 5.5875 3.155 5.375 3.75 C4.91338739 6.51967567 5.57055055 7.64561267 7 10 C4 10 4 10 1.875 8.3125 C-0.17848152 5.77987279 -0.73880256 4.22143505 -1 1 C-0.67 0.67 -0.34 0.34 0 0 Z " fill="#794B46" transform="translate(6,17)"/>
<path d="M0 0 C2.98355176 -0.24862931 4.64865849 -0.18991433 7.3125 1.25 C9 3 9 3 9 7 C3.49411765 6.51058824 3.49411765 6.51058824 1.125 4.0625 C0 2 0 2 0 0 Z " fill="#B1BEC4" transform="translate(19,0)"/>
<path d="M0 0 C8.91 1.485 8.91 1.485 18 3 C18 3.66 18 4.32 18 5 C12.22240116 5.12036664 6.72040011 4.8320582 1 4 C0.67 2.68 0.34 1.36 0 0 Z " fill="#93C2D5" transform="translate(46,25)"/>
<path d="M0 0 C2.01822917 0.26041667 4.03645833 0.52083333 6.0546875 0.78125 C8.00498344 1.0372485 8.00498344 1.0372485 10 1 C9.67 2.65 9.34 4.3 9 6 C5.37546731 6 3.92079805 5.07530387 1 3 C0.67 2.01 0.34 1.02 0 0 Z " fill="#022D50" transform="translate(0,40)"/>
<path d="M0 0 C5.28 0.33 10.56 0.66 16 1 C16 1.66 16 2.32 16 3 C11.05 3 6.1 3 1 3 C0.67 2.01 0.34 1.02 0 0 Z " fill="#D4E8EB" transform="translate(48,29)"/>
<path d="M0 0 C2.375 0.25 2.375 0.25 5 1 C6.3125 3.0625 6.3125 3.0625 7 5 C6.34 5.66 5.68 6.32 5 7 C5.66 7.66 6.32 8.32 7 9 C6.01 9.33 5.02 9.66 4 10 C2.4375 8.75 2.4375 8.75 1 7 C1.29369827 5.65737935 1.6278958 4.32303717 2 3 C1.34 2.01 0.68 1.02 0 0 Z " fill="#8B5A45" transform="translate(18,44)"/>
<path d="M0 0 C2 3.75 2 3.75 2 6 C1.34 6 0.68 6 0 6 C0 6.66 0 7.32 0 8 C1.32 8 2.64 8 4 8 C4 8.66 4 9.32 4 10 C4.99 10.33 5.98 10.66 7 11 C5.3125 11.8125 5.3125 11.8125 3 12 C0.25 9.5625 0.25 9.5625 -2 7 C-1.34 4.69 -0.68 2.38 0 0 Z " fill="#703927" transform="translate(33,42)"/>
<path d="M0 0 C1.98 0 3.96 0 6 0 C5.75 1.875 5.75 1.875 5 4 C2.9375 5.25 2.9375 5.25 1 6 C0.01 5.34 -0.98 4.68 -2 4 C-1.34 2.68 -0.68 1.36 0 0 Z " fill="#48819E" transform="translate(58,18)"/>
<path d="M0 0 C2.475 0.99 2.475 0.99 5 2 C5 2.66 5 3.32 5 4 C7.64 4 10.28 4 13 4 C13 4.33 13 4.66 13 5 C12.21625 5.12375 11.4325 5.2475 10.625 5.375 C7.85942178 5.79117993 7.85942178 5.79117993 6 8 C1.125 3.375 1.125 3.375 0 0 Z " fill="#B0BDD5" transform="translate(38,3)"/>
<path d="M0 0 C-0.33 0.66 -0.66 1.32 -1 2 C-1.66 2 -2.32 2 -3 2 C-3.33 3.32 -3.66 4.64 -4 6 C-4.61875 5.649375 -5.2375 5.29875 -5.875 4.9375 C-6.926875 4.4734375 -6.926875 4.4734375 -8 4 C-8.99 4.495 -8.99 4.495 -10 5 C-10 4.01 -10 3.02 -10 2 C-6.49223216 0.39644899 -3.85645121 -0.22036864 0 0 Z " fill="#601D0C" transform="translate(23,32)"/>
<path d="M0 0 C0 1.32 0 2.64 0 4 C0.66 4.66 1.32 5.32 2 6 C1.01 6.66 0.02 7.32 -1 8 C-3.33524782 5.74259377 -5.18705073 3.7194239 -7 1 C-4 0 -4 0 0 0 Z " fill="#7D523C" transform="translate(16,21)"/>
<path d="M0 0 C0.33 0.66 0.66 1.32 1 2 C2.65 1.34 4.3 0.68 6 0 C6.79953138 3.28696233 7.09658936 4.71023192 6 8 C5.34 8 4.68 8 4 8 C3.731875 7.38125 3.46375 6.7625 3.1875 6.125 C2.04443152 3.7004767 2.04443152 3.7004767 -1 2 C-0.67 1.34 -0.34 0.68 0 0 Z " fill="#633E32" transform="translate(43,30)"/>
<path d="M0 0 C1.98 0.495 1.98 0.495 4 1 C4 4.3 4 7.6 4 11 C2.35 10.67 0.7 10.34 -1 10 C-0.34 9.67 0.32 9.34 1 9 C1.65555119 6.47266765 1.65555119 6.47266765 2 4 C1.34 4 0.68 4 0 4 C0 2.68 0 1.36 0 0 Z " fill="#2F5C81" transform="translate(10,49)"/>
<path d="M0 0 C3.31317555 0.26863586 4.63876354 0.59059868 6.875 3.125 C8.30731738 6.78536663 7.8177236 9.20873606 7 13 C6.01 12.34 5.02 11.68 4 11 C4.66 11 5.32 11 6 11 C6 9.02 6 7.04 6 5 C5.01 5 4.02 5 3 5 C2.87625 4.360625 2.7525 3.72125 2.625 3.0625 C2.315625 2.0415625 2.315625 2.0415625 2 1 C1.34 0.67 0.68 0.34 0 0 Z " fill="#503631" transform="translate(34,18)"/>
<path d="M0 0 C4.455 2.97 4.455 2.97 9 6 C8.67 6.99 8.34 7.98 8 9 C6 9 6 9 4 7.0625 C3.34 6.381875 2.68 5.70125 2 5 C1.34 4.67 0.68 4.34 0 4 C0 2.68 0 1.36 0 0 Z " fill="#06436D" transform="translate(0,45)"/>
<path d="M0 0 C0.66 0 1.32 0 2 0 C2 1.65 2 3.3 2 5 C1.34 5 0.68 5 0 5 C0.33 6.65 0.66 8.3 1 10 C0.01 10.33 -0.98 10.66 -2 11 C-1.85957123 9.35369672 -1.71250671 7.70795821 -1.5625 6.0625 C-1.48128906 5.14597656 -1.40007813 4.22945312 -1.31640625 3.28515625 C-1 1 -1 1 0 0 Z " fill="#77422D" transform="translate(32,24)"/>
<path d="M0 0 C1.98 0.495 1.98 0.495 4 1 C4 1.66 4 2.32 4 3 C4.66 3.33 5.32 3.66 6 4 C4.02 5.32 2.04 6.64 0 8 C-0.79953138 4.71303767 -1.09658936 3.28976808 0 0 Z " fill="#0C1B24" transform="translate(10,12)"/>
<path d="M0 0 C2 1.8125 2 1.8125 4 4 C4 4.99 4 5.98 4 7 C2.35 6.67 0.7 6.34 -1 6 C-1.042721 4.33388095 -1.04063832 2.66617115 -1 1 C-0.67 0.67 -0.34 0.34 0 0 Z " fill="#5E5244" transform="translate(52,40)"/>
<path d="M0 0 C2.97 0.495 2.97 0.495 6 1 C6 1.99 6 2.98 6 4 C3.69 4 1.38 4 -1 4 C-0.67 2.68 -0.34 1.36 0 0 Z " fill="#235943" transform="translate(49,22)"/>
<path d="M0 0 C0.66 0 1.32 0 2 0 C2 0.66 2 1.32 2 2 C2.99 2 3.98 2 5 2 C5 2.66 5 3.32 5 4 C4.34 4 3.68 4 3 4 C2.67 4.99 2.34 5.98 2 7 C2 6.34 2 5.68 2 5 C0.68 5 -0.64 5 -2 5 C-1.125 1.125 -1.125 1.125 0 0 Z " fill="#64453C" transform="translate(14,16)"/>
<path d="M0 0 C1.65 0 3.3 0 5 0 C5.33 1.32 5.66 2.64 6 4 C2.71303767 4.79953138 1.28976808 5.09658936 -2 4 C-1.34 2.68 -0.68 1.36 0 0 Z " fill="#71484B" transform="translate(33,9)"/>
<path d="M0 0 C1.32 0.33 2.64 0.66 4 1 C5.75 4.0625 5.75 4.0625 7 7 C5.68 7.33 4.36 7.66 3 8 C2.01 5.36 1.02 2.72 0 0 Z " fill="#729BA0" transform="translate(56,39)"/>
<path d="M0 0 C1.65 0 3.3 0 5 0 C5 1.32 5 2.64 5 4 C3.02 4.33 1.04 4.66 -1 5 C-0.67 3.35 -0.34 1.7 0 0 Z " fill="#ADA8AE" transform="translate(46,8)"/>
<path d="M0 0 C0.99 1.32 1.98 2.64 3 4 C1.35 5.32 -0.3 6.64 -2 8 C-2.33 7.01 -2.66 6.02 -3 5 C-3.66 5 -4.32 5 -5 5 C-5 4.34 -5 3.68 -5 3 C-2.525 3.495 -2.525 3.495 0 4 C0 2.68 0 1.36 0 0 Z " fill="#152E3F" transform="translate(9,0)"/>
<path d="M0 0 C3.28788824 3.11016455 5.83735988 6.01618925 8 10 C6.35 9.67 4.7 9.34 3 9 C2.01 6.03 1.02 3.06 0 0 Z " fill="#375A68" transform="translate(12,5)"/>
<path d="M0 0 C0.33 0.99 0.66 1.98 1 3 C3.97 2.34 6.94 1.68 10 1 C8.9375 3 8.9375 3 7 5 C3.3125 5.25 3.3125 5.25 0 5 C0 3.35 0 1.7 0 0 Z " fill="#BAAA9A" transform="translate(44,59)"/>
<path d="M0 0 C2.64 0 5.28 0 8 0 C8.66 1.32 9.32 2.64 10 4 C7.03 3.67 4.06 3.34 1 3 C0.67 2.01 0.34 1.02 0 0 Z " fill="#175081" transform="translate(0,56)"/>
<path d="M0 0 C0.33 0.66 0.66 1.32 1 2 C1.99 2.33 2.98 2.66 4 3 C0.49223216 4.60355101 -2.14354879 5.22036864 -6 5 C-5.67 3.68 -5.34 2.36 -5 1 C-3.35 0.67 -1.7 0.34 0 0 Z " fill="#833125" transform="translate(24,39)"/>
<path d="M0 0 C1.98567708 0.09765625 3.97135417 0.1953125 5.95703125 0.29296875 C5.62703125 1.28296875 5.29703125 2.27296875 4.95703125 3.29296875 C1.65703125 3.29296875 -1.64296875 3.29296875 -5.04296875 3.29296875 C-2.04296875 0.29296875 -2.04296875 0.29296875 0 0 Z " fill="#8A99B4" transform="translate(25.04296875,10.70703125)"/>
<path d="M0 0 C2.475 0.495 2.475 0.495 5 1 C5.33 1.99 5.66 2.98 6 4 C2.25 5.125 2.25 5.125 0 4 C0 2.68 0 1.36 0 0 Z " fill="#824D36" transform="translate(10,29)"/>
<path d="M0 0 C0.66 0.33 1.32 0.66 2 1 C1.67 2.65 1.34 4.3 1 6 C-0.65 6 -2.3 6 -4 6 C-3.0022242 3.00667261 -2.2477975 2.05233685 0 0 Z " fill="#71594D" transform="translate(55,58)"/>
<path d="M0 0 C3 1 3 1 4.6875 4.0625 C5.120625 5.031875 5.55375 6.00125 6 7 C4.35 6.67 2.7 6.34 1 6 C0.67 4.02 0.34 2.04 0 0 Z " fill="#83786F" transform="translate(19,57)"/>
<path d="M0 0 C0.33 0 0.66 0 1 0 C1 2.97 1 5.94 1 9 C0.01 9.33 -0.98 9.66 -2 10 C-1.54177532 6.53058454 -1.10868317 3.32604951 0 0 Z " fill="#D6DDDD" transform="translate(15,38)"/>
<path d="M0 0 C0.99 0.33 1.98 0.66 3 1 C2.34 1 1.68 1 1 1 C1.99 3.64 2.98 6.28 4 9 C3.01 8.67 2.02 8.34 1 8 C0.29788106 6.34795544 -0.36971413 4.68076231 -1 3 C-1.66 2.67 -2.32 2.34 -3 2 C-2.01 1.34 -1.02 0.68 0 0 Z " fill="#809FCC" transform="translate(40,16)"/>
<path d="M0 0 C1.65 0 3.3 0 5 0 C5.33 1.32 5.66 2.64 6 4 C4.68 4.33 3.36 4.66 2 5 C1.34 3.35 0.68 1.7 0 0 Z " fill="#5A88A4" transform="translate(14,0)"/>
<path d="M0 0 C0.66 0.33 1.32 0.66 2 1 C2 3.64 2 6.28 2 9 C0.5 7.8125 0.5 7.8125 -1 6 C-1.25 3.375 -1.25 3.375 -1 1 C-0.67 0.67 -0.34 0.34 0 0 Z " fill="#093757" transform="translate(62,37)"/>
<path d="M0 0 C0.66 0.33 1.32 0.66 2 1 C0.25 5.875 0.25 5.875 -2 7 C-2 6.01 -2 5.02 -2 4 C-2.66 3.67 -3.32 3.34 -4 3 C-2 1 -2 1 0 0 Z " fill="#154D70" transform="translate(12,37)"/>
<path d="M0 0 C0.94875 0.04125 1.8975 0.0825 2.875 0.125 C3.205 1.115 3.535 2.105 3.875 3.125 C0.905 2.795 -2.065 2.465 -5.125 2.125 C-3.125 0.125 -3.125 0.125 0 0 Z " fill="#1A5487" transform="translate(8.125,60.875)"/>
<path d="M0 0 C0.99 0.33 1.98 0.66 3 1 C2.40138258 3.35171131 1.73075648 5.6859378 1 8 C0.01 8.495 0.01 8.495 -1 9 C-0.979375 8.21625 -0.95875 7.4325 -0.9375 6.625 C-0.81315937 4.01885039 -0.81315937 4.01885039 -2 2 C-1.34 2 -0.68 2 0 2 C0 1.34 0 0.68 0 0 Z " fill="#A08A7A" transform="translate(57,55)"/>
<path d="M0 0 C0.33 0 0.66 0 1 0 C1.625 3.375 1.625 3.375 2 7 C1.34 7.66 0.68 8.32 0 9 C0 8.34 0 7.68 0 7 C-0.99 6.67 -1.98 6.34 -3 6 C-2.01 4.02 -1.02 2.04 0 0 Z " fill="#713826" transform="translate(25,45)"/>
<path d="M0 0 C1.98 0 3.96 0 6 0 C6.33 1.32 6.66 2.64 7 4 C6.01 4 5.02 4 4 4 C4 3.34 4 2.68 4 2 C2.68 2 1.36 2 0 2 C0 1.34 0 0.68 0 0 Z " fill="#884336" transform="translate(33,48)"/>
<path d="M0 0 C0.99 1.32 1.98 2.64 3 4 C2.01 4.99 1.02 5.98 0 7 C-0.99 6.01 -1.98 5.02 -3 4 C-2.01 2.68 -1.02 1.36 0 0 Z " fill="#0D2B3F" transform="translate(8,8)"/>
<path d="M0 0 C0.66 0 1.32 0 2 0 C2 1.65 2 3.3 2 5 C1.34 5 0.68 5 0 5 C-0.33 5.99 -0.66 6.98 -1 8 C-2.32 7.34 -3.64 6.68 -5 6 C-1.25 4 -1.25 4 1 4 C0.67 2.68 0.34 1.36 0 0 Z " fill="#8A8AAF" transform="translate(38,9)"/>
<path d="M0 0 C2 2 2 2 2.125 4.625 C2.08375 5.40875 2.0425 6.1925 2 7 C0.35 6.67 -1.3 6.34 -3 6 C-3 5.34 -3 4.68 -3 4 C-2.01 4 -1.02 4 0 4 C0 2.68 0 1.36 0 0 Z " fill="#B5B39D" transform="translate(26,55)"/>
<path d="M0 0 C0.66 0.33 1.32 0.66 2 1 C2 1.99 2 2.98 2 4 C0.35 4.33 -1.3 4.66 -3 5 C-2.625 3.0625 -2.625 3.0625 -2 1 C-1.34 0.67 -0.68 0.34 0 0 Z " fill="#6D6454" transform="translate(49,57)"/>
<path d="M0 0 C0 1.32 0 2.64 0 4 C-0.99 4 -1.98 4 -3 4 C-3.66 4.66 -4.32 5.32 -5 6 C-5 4.35 -5 2.7 -5 1 C-3 0 -3 0 0 0 Z " fill="#714335" transform="translate(18,47)"/>
<path d="M0 0 C1.32 0 2.64 0 4 0 C4.33 1.65 4.66 3.3 5 5 C3.35 5 1.7 5 0 5 C0 3.33333333 0 1.66666667 0 0 Z " fill="#5A97E6" transform="translate(44,0)"/>
<path d="M0 0 C1.485 0.99 1.485 0.99 3 2 C3.1875 4.625 3.1875 4.625 3 7 C2.01 6.67 1.02 6.34 0 6 C0 4.02 0 2.04 0 0 Z " fill="#82A5B5" transform="translate(13,53)"/>
<path d="M0 0 C0.625 1.875 0.625 1.875 1 4 C0.34 4.66 -0.32 5.32 -1 6 C-1.66 6 -2.32 6 -3 6 C-2.625 3.5625 -2.625 3.5625 -2 1 C-1.34 0.67 -0.68 0.34 0 0 Z " fill="#43869C" transform="translate(63,47)"/>
<path d="M0 0 C2.475 0.495 2.475 0.495 5 1 C5.33 2.32 5.66 3.64 6 5 C4.02 5 2.04 5 0 5 C0.66 4.67 1.32 4.34 2 4 C1.34 2.68 0.68 1.36 0 0 Z " fill="#225A42" transform="translate(55,2)"/>
</svg>
