<?xml version="1.0" standalone="no"?>
<!DOCTYPE svg PUBLIC "-//W3C//DTD SVG 20010904//EN"
 "http://www.w3.org/TR/2001/REC-SVG-20010904/DTD/svg10.dtd">
<svg version="1.0" xmlns="http://www.w3.org/2000/svg"
 width="64.000000pt" height="64.000000pt" viewBox="0 0 64.000000 64.000000"
 preserveAspectRatio="xMidYMid meet">

<g transform="translate(0.000000,64.000000) scale(0.100000,-0.100000)"
fill="#000000" stroke="none">
<path d="M0 564 l0 -75 59 58 c47 46 57 62 49 76 -6 13 -21 17 -58 17 l-50 0
0 -76z"/>
<path d="M170 625 c0 -8 7 -15 15 -15 9 0 12 6 9 15 -4 8 -10 15 -15 15 -5 0
-9 -7 -9 -15z"/>
<path d="M255 624 c11 -8 28 -21 38 -30 22 -18 72 -11 85 13 5 8 12 14 15 14
23 -3 37 0 37 9 0 6 -39 10 -97 10 -89 -1 -96 -2 -78 -16z"/>
<path d="M490 631 c0 -4 11 -20 25 -35 18 -19 34 -27 53 -25 15 2 37 -3 50 -9
21 -12 22 -11 22 33 l0 45 -75 0 c-41 0 -75 -4 -75 -9z"/>
<path d="M61 535 l-61 -58 0 -239 0 -238 60 0 c33 0 60 4 60 10 0 5 7 6 17 3
10 -4 14 -2 10 4 -3 5 -25 10 -48 11 -57 3 -63 12 -8 12 l45 0 -4 37 -5 38 21
-19 c28 -24 89 -16 115 16 10 13 16 18 13 11 -10 -19 15 -27 31 -10 14 14 18
14 39 1 20 -14 26 -14 52 0 33 17 75 69 65 80 -3 3 -1 6 5 6 10 0 21 38 25 88
2 27 4 27 43 3 38 -23 86 -83 81 -102 -2 -8 -2 -11 0 -6 3 4 9 5 14 1 5 -3 9
24 9 61 l0 66 -52 -2 c-73 -4 -94 6 -115 51 -13 28 -23 38 -35 34 -11 -3 -22
5 -34 26 -10 16 -22 30 -26 30 -4 0 -7 5 -5 12 1 6 -8 14 -19 17 -19 5 -20 8
-8 19 8 7 14 10 14 7 0 -3 9 -1 21 6 15 8 18 14 10 22 -19 19 -62 14 -77 -8
-11 -17 -23 -21 -56 -19 -24 1 -51 -3 -62 -8 -12 -7 -16 -7 -12 0 3 6 2 12 -2
14 -5 1 -20 20 -35 42 l-26 39 -60 -58z m23 -73 c2 -4 -5 -9 -17 -9 -17 -2
-19 0 -7 7 18 12 18 12 24 2z m313 -89 c-3 -10 -5 -4 -5 12 0 17 2 24 5 18 2
-7 2 -21 0 -30z m20 -25 c-3 -7 -5 -2 -5 12 0 14 2 19 5 13 2 -7 2 -19 0 -25z
m-149 -60 c-7 -13 -14 -25 -15 -26 -1 -2 -9 0 -18 6 -16 8 -15 11 6 26 32 22
41 20 27 -6z m32 3 c0 -6 -11 -23 -25 -38 l-26 -28 23 37 c25 40 28 43 28 29z
m-90 -23 c0 -16 -3 -19 -11 -11 -6 6 -8 16 -5 22 11 17 16 13 16 -11z m-46
-65 c-4 -15 -2 -23 7 -24 8 0 5 -4 -6 -9 -33 -14 -38 -11 -31 20 3 17 9 45 13
63 l6 32 8 -30 c5 -16 6 -39 3 -52z m153 52 c0 -8 -6 -16 -14 -19 -11 -4 -11
-1 -3 14 13 24 17 25 17 5z m-77 -11 c0 -8 -4 -12 -10 -9 -5 3 -10 10 -10 16
0 5 5 9 10 9 6 0 10 -7 10 -16z m-46 -20 c3 -8 2 -12 -4 -9 -6 3 -10 10 -10
16 0 14 7 11 14 -7z m21 -104 c10 -11 16 -20 13 -20 -3 0 -13 9 -23 20 -10 11
-16 20 -13 20 3 0 13 -9 23 -20z"/>
<path d="M562 433 c2 -10 10 -18 18 -18 8 0 16 8 18 18 2 12 -3 17 -18 17 -15
0 -20 -5 -18 -17z"/>
<path d="M480 401 c0 -13 10 -20 32 -25 38 -7 57 12 31 32 -26 19 -63 15 -63
-7z"/>
<path d="M515 228 c-11 -28 -1 -53 23 -56 28 -4 29 17 3 49 -17 21 -20 22 -26
7z"/>
<path d="M606 145 c-9 -26 -7 -32 5 -12 6 10 9 21 6 23 -2 3 -7 -2 -11 -11z"/>
<path d="M522 116 c-17 -19 -28 -36 -25 -39 2 -3 -5 -10 -16 -17 -19 -9 -30
-40 -15 -40 17 0 45 24 40 35 -2 7 2 19 10 26 15 12 48 69 41 69 -2 0 -18 -15
-35 -34z"/>
<path d="M619 45 c-13 -29 -14 -35 -3 -35 8 0 14 3 15 8 0 4 3 19 5 35 6 35 2
34 -17 -8z"/>
<path d="M190 59 c0 -22 33 -63 48 -58 6 2 -1 19 -18 39 -20 24 -30 30 -30 19z"/>
<path d="M533 34 c-29 -31 -29 -34 2 -34 18 0 26 7 31 26 5 20 9 23 16 12 8
-10 9 -10 5 2 -6 23 -30 21 -54 -6z"/>
<path d="M288 3 c7 -3 16 -2 19 1 4 3 -2 6 -13 5 -11 0 -14 -3 -6 -6z"/>
</g>
</svg>
