<?xml version="1.0" standalone="no"?>
<!DOCTYPE svg PUBLIC "-//W3C//DTD SVG 20010904//EN"
 "http://www.w3.org/TR/2001/REC-SVG-20010904/DTD/svg10.dtd">
<svg version="1.0" xmlns="http://www.w3.org/2000/svg"
 width="200.000000pt" height="200.000000pt" viewBox="0 0 200.000000 200.000000"
 preserveAspectRatio="xMidYMid meet">

<g transform="translate(0.000000,200.000000) scale(0.100000,-0.100000)"
fill="#000000" stroke="none">
<path d="M833 1935 c-392 -71 -700 -380 -768 -772 -87 -496 231 -974 721
-1089 61 -14 294 -35 294 -26 0 8 -61 92 -72 98 -7 4 -2 -9 10 -29 24 -42 14
-47 -35 -17 -46 28 -57 55 -57 147 -1 76 -9 108 -18 66 -2 -11 -17 8 -38 52
-19 39 -44 86 -56 105 -13 19 -26 47 -29 62 l-7 26 41 -10 c24 -6 38 -15 34
-21 -4 -7 0 -8 12 -4 9 4 24 2 32 -4 11 -10 11 -15 -3 -30 -18 -20 -13 -23 32
-20 11 1 28 -7 39 -19 18 -20 18 -21 -11 -51 l-29 -31 38 25 c49 33 79 26 45
-11 -20 -21 -20 -23 -3 -13 77 43 99 68 151 169 28 57 65 117 80 134 38 39
126 98 148 98 10 0 15 4 12 8 -2 4 31 8 74 7 43 0 76 3 73 7 -2 5 -28 8 -56 9
l-52 0 45 15 c25 7 48 14 52 14 4 0 21 -24 38 -52 l31 -53 -7 -125 c-6 -121
-25 -197 -45 -184 -5 3 -9 1 -9 -5 0 -15 91 -115 108 -119 8 -2 12 0 8 6 -3 5
4 18 15 28 77 69 176 226 220 345 158 434 -15 916 -415 1151 -185 109 -430
152 -643 113z m368 -40 c203 -41 419 -185 545 -361 118 -165 191 -424 170
-597 -7 -53 -8 -54 -58 -78 -46 -21 -66 -24 -174 -24 -67 0 -125 3 -129 7 -4
4 3 22 16 40 20 28 24 45 23 108 0 80 -25 192 -55 252 -19 37 -19 37 0 48 50
26 26 102 -38 121 -27 8 -43 20 -54 43 -25 53 -68 98 -88 93 -10 -3 -17 0 -16
7 1 6 -13 12 -32 14 -18 2 -50 14 -70 28 -84 55 -195 68 -303 34 -34 -11 -76
-20 -91 -20 -48 0 -98 -30 -165 -98 l-64 -64 -100 -13 c-107 -14 -140 -32
-152 -81 -7 -27 17 -82 40 -91 34 -13 35 -40 4 -131 -16 -50 -30 -102 -30
-116 0 -15 -9 -52 -21 -84 -44 -119 -51 -162 -39 -211 6 -25 18 -53 26 -62 10
-11 14 -33 12 -65 l-3 -49 -76 -3 -76 -3 -36 79 c-58 126 -80 227 -81 372 -2
196 45 357 148 515 117 176 312 326 423 324 37 0 43 -2 27 -9 -27 -11 -54 -48
-54 -75 0 -16 -4 -13 -20 13 l-21 34 -32 -21 c-18 -11 -32 -29 -31 -39 0 -13
-5 -17 -20 -15 -13 3 -30 -5 -44 -19 l-22 -24 46 -67 c26 -37 50 -67 54 -67 3
0 20 13 36 30 16 16 36 30 44 30 8 0 26 9 39 19 19 15 22 21 12 39 -10 19 -9
20 20 9 24 -9 35 -9 56 3 21 12 42 36 49 58 0 1 15 -5 32 -13 33 -17 74 -12
93 11 9 11 13 11 26 -1 8 -8 23 -15 34 -15 31 0 86 26 98 47 9 15 10 13 5 -11
-7 -32 6 -46 45 -46 13 0 64 -14 112 -31 49 -16 93 -28 98 -25 5 3 14 -7 21
-23 13 -33 70 -65 98 -57 19 7 62 68 62 89 0 7 5 18 12 25 9 9 6 17 -11 36
-32 34 -72 41 -111 21 l-31 -16 16 31 c19 38 14 47 -30 56 -19 3 -35 10 -35
14 0 9 -69 35 -74 28 -2 -1 -8 -12 -15 -23 -11 -19 -11 -19 -9 5 3 20 -3 27
-32 37 -19 6 -47 12 -61 12 -24 1 -28 -4 -37 -46 -8 -41 -10 -43 -11 -16 -2
53 -68 89 -125 67 -11 -4 -16 -19 -16 -43 -1 -32 -2 -34 -12 -16 -6 11 -19 25
-27 32 -19 14 -20 13 44 40 55 24 120 24 246 -2z m-403 -67 c-7 -13 -13 -24
-14 -26 -1 -1 -14 4 -29 12 l-28 15 29 6 c16 4 34 8 39 10 6 2 11 4 13 4 1 1
-3 -9 -10 -21z m412 2 c0 -11 -2 -20 -4 -20 -2 0 -6 9 -9 20 -3 11 -1 20 4 20
5 0 9 -9 9 -20z m-307 -41 c7 -25 3 -24 -17 6 -13 19 -13 23 -2 19 8 -3 16
-14 19 -25z m407 27 c0 -3 -4 -8 -10 -11 -5 -3 -10 -1 -10 4 0 6 5 11 10 11 6
0 10 -2 10 -4z m-617 -33 c-5 -12 -3 -14 7 -8 8 5 11 4 7 -2 -4 -6 -15 -13
-26 -16 -22 -5 -23 19 0 34 19 12 19 12 12 -8z m114 -5 c-3 -8 -6 -5 -6 6 -1
11 2 17 5 13 3 -3 4 -12 1 -19z m160 -15 c-3 -10 -5 -4 -5 12 0 17 2 24 5 18
2 -7 2 -21 0 -30z m214 14 c-10 -9 -11 -8 -5 6 3 10 9 15 12 12 3 -3 0 -11 -7
-18z m49 16 c0 -14 -19 -38 -25 -32 -8 8 5 39 16 39 5 0 9 -3 9 -7z m-210 -33
c0 -5 -2 -10 -4 -10 -3 0 -8 5 -11 10 -3 6 -1 10 4 10 6 0 11 -4 11 -10z
m-242 -25 c-3 -3 -9 2 -12 12 -6 14 -5 15 5 6 7 -7 10 -15 7 -18z m107 -4 c-3
-6 -14 -10 -23 -10 -15 1 -15 2 1 6 9 2 17 9 17 15 0 6 3 9 6 5 3 -3 3 -10 -1
-16z m-284 -8 c13 -17 13 -17 -6 -3 -11 8 -22 16 -24 17 -2 2 0 3 6 3 6 0 17
-8 24 -17z m84 7 c18 -8 17 -9 -7 -9 -16 -1 -28 4 -28 9 0 12 8 12 35 0z m439
2 c3 -5 -1 -9 -9 -9 -8 0 -12 4 -9 9 3 4 7 8 9 8 2 0 6 -4 9 -8z m239 -7 c-3
-9 -8 -14 -10 -11 -3 3 -2 9 2 15 9 16 15 13 8 -4z m-610 -15 c-3 -11 -7 -20
-8 -20 -1 0 -5 9 -8 20 -3 12 0 20 8 20 8 0 11 -8 8 -20z m547 0 c0 -5 -4 -10
-10 -10 -5 0 -10 5 -10 10 0 6 5 10 10 10 6 0 10 -4 10 -10z m-570 -20 c0 -5
-7 -7 -15 -4 -8 4 -15 8 -15 10 0 2 7 4 15 4 8 0 15 -4 15 -10z m-150 -10 c0
-5 -2 -10 -4 -10 -3 0 -8 5 -11 10 -3 6 -1 10 4 10 6 0 11 -4 11 -10z m720 0
c0 -5 -5 -10 -11 -10 -5 0 -7 5 -4 10 3 6 8 10 11 10 2 0 4 -4 4 -10z m117 -6
c-3 -3 -12 -4 -19 -1 -8 3 -5 6 6 6 11 1 17 -2 13 -5z m-919 -39 c-3 -3 -9 2
-12 12 -6 14 -5 15 5 6 7 -7 10 -15 7 -18z m962 21 c0 -3 -4 -8 -10 -11 -5 -3
-10 -1 -10 4 0 6 5 11 10 11 6 0 10 -2 10 -4z m-869 -33 c11 -15 11 -16 -1 -6
-11 10 -17 10 -29 0 -14 -11 -14 -10 -2 6 7 9 15 17 16 17 1 0 9 -8 16 -17z
m520 -28 c42 -7 101 -24 133 -35 31 -12 69 -23 82 -25 42 -4 59 -28 45 -65 -6
-18 -8 -37 -4 -44 13 -20 11 -35 -3 -29 -20 7 -18 -7 3 -22 15 -11 15 -15 4
-29 -21 -25 -3 -32 19 -8 24 26 33 27 50 7 19 -22 32 -18 20 6 -7 11 -9 23 -6
26 9 10 56 -15 63 -33 7 -18 -14 -35 -34 -27 -7 3 -13 0 -13 -7 0 -15 32 -70
41 -70 10 0 29 -93 29 -139 0 -29 -7 -47 -29 -70 -15 -16 -27 -32 -26 -33 2
-2 -12 -4 -31 -6 -21 -1 -52 7 -77 20 -66 36 -172 32 -257 -8 -72 -34 -129
-47 -151 -33 -8 5 -9 9 -3 9 7 0 14 8 17 18 5 20 44 32 105 32 20 0 69 12 111
26 49 17 88 24 111 21 20 -2 49 1 66 8 16 8 22 14 14 14 -26 2 -41 22 -28 38
9 11 3 21 -28 49 l-39 35 -80 -7 c-82 -7 -110 -17 -133 -46 -7 -10 -18 -18
-24 -18 -6 0 -17 -8 -24 -17 -11 -16 -16 -16 -35 -4 -17 10 -24 10 -27 2 -6
-18 -40 -13 -47 8 -5 16 -11 18 -35 11 -19 -6 -34 -4 -48 6 -18 13 -22 11 -40
-20 -12 -19 -16 -37 -11 -40 5 -2 4 -3 -2 -2 -7 1 -14 18 -16 37 -2 25 4 44
22 69 14 18 22 36 19 39 -14 15 -64 -81 -64 -123 0 -67 69 -154 158 -200 45
-23 36 -40 -22 -44 -38 -3 -47 -6 -44 -20 3 -16 36 -35 133 -78 49 -21 148
-25 192 -7 22 9 49 10 90 5 l58 -8 -40 -20 c-22 -11 -76 -26 -119 -33 -44 -7
-86 -19 -93 -27 -8 -8 -31 -14 -51 -15 l-37 -1 50 -24 c31 -15 68 -24 98 -24
53 0 58 -10 23 -45 -65 -65 -374 -30 -515 60 -22 13 -59 44 -82 67 l-42 43 23
-40 c21 -37 43 -61 109 -115 13 -11 39 -22 57 -26 19 -3 37 -10 39 -15 3 -4
-2 -6 -12 -4 -29 6 -189 70 -189 75 0 3 -28 32 -62 65 -61 60 -75 68 -49 30 8
-11 22 -33 32 -49 l19 -29 -36 5 c-20 2 -34 0 -32 -4 3 -4 15 -8 26 -8 12 0
41 -9 65 -21 44 -21 54 -44 31 -68 -11 -10 -9 -11 6 -5 13 5 17 4 12 -4 -5 -8
-2 -10 8 -6 16 6 82 -28 103 -54 9 -11 8 -20 -5 -41 -16 -26 -16 -26 4 -9 11
10 26 18 32 18 15 0 16 -17 2 -25 -5 -3 -10 -12 -10 -18 0 -7 12 3 26 21 31
39 46 34 33 -11 -12 -42 -10 -70 3 -34 5 15 16 27 23 27 17 0 45 -44 45 -70 0
-12 11 -32 25 -46 32 -32 31 -37 -4 -32 -17 2 -28 1 -26 -3 9 -13 -23 -18 -77
-10 -83 11 -155 58 -246 161 -85 96 -110 149 -99 215 4 22 -1 55 -14 90 -27
77 -24 121 11 180 l30 50 0 -35 c0 -19 9 -53 20 -75 13 -24 18 -30 15 -15 -24
105 -28 161 -15 217 8 32 15 63 16 70 1 6 7 28 14 47 6 20 9 40 6 45 -8 12 21
41 40 41 20 0 17 -15 -17 -100 -45 -113 -52 -264 -15 -316 12 -16 12 -10 -1
36 -16 63 -11 185 10 226 12 23 13 20 15 -38 2 -64 17 -118 33 -118 4 0 6 16
4 36 -7 49 28 177 59 223 27 38 33 75 16 101 -8 12 -15 11 -48 -8 -60 -33
-107 -29 -149 13 -69 69 -23 127 109 139 47 4 90 15 120 30 46 24 47 24 53 5
4 -11 11 -17 16 -13 7 4 8 -6 4 -28 -5 -25 -2 -38 14 -55 27 -28 27 -42 1 -18
-11 10 -20 14 -20 9 1 -34 56 -58 91 -40 71 35 55 167 -23 192 -28 9 -5 32 41
40 20 4 41 13 46 20 6 7 42 19 80 27 91 19 79 19 166 2z m-314 -120 c25 -17
39 -63 24 -78 -8 -8 -11 -4 -11 14 -1 21 -2 22 -11 7 -5 -10 -14 -18 -19 -18
-15 0 -12 27 3 33 21 9 -15 27 -40 20 -27 -6 -31 12 -5 26 23 14 34 13 59 -4z
m645 -57 c-7 -7 -12 -8 -12 -4 0 5 -7 3 -15 -4 -20 -17 -19 -5 2 20 11 13 21
16 27 10 7 -7 6 -14 -2 -22z m59 -18 c6 0 8 -4 5 -9 -8 -12 -46 -2 -46 11 0 6
7 7 16 4 9 -3 20 -6 25 -6z m-741 -10 c0 -5 -2 -10 -4 -10 -3 0 -8 5 -11 10
-3 6 -1 10 4 10 6 0 11 -4 11 -10z m-194 -187 c-8 -15 -15 -22 -16 -15 0 14
22 53 28 47 2 -2 -3 -16 -12 -32z m-30 -68 c-3 -9 -11 -13 -16 -10 -8 5 -7 11
1 21 14 18 24 11 15 -11z m451 -67 c-3 -8 -6 -5 -6 6 -1 11 2 17 5 13 3 -3 4
-12 1 -19z m603 -54 c0 -108 -88 -203 -162 -175 -21 8 -20 11 30 41 42 27 54
40 63 73 20 74 69 117 69 61z m-730 6 c0 -5 -4 -10 -10 -10 -5 0 -10 5 -10 10
0 6 5 10 10 10 6 0 10 -4 10 -10z m475 -47 l34 -27 -37 -14 c-20 -8 -52 -17
-71 -20 -38 -8 -43 -25 -9 -30 12 -2 31 -10 42 -18 11 -8 40 -14 64 -14 49 0
48 -11 -2 -35 -21 -10 -63 -16 -111 -17 -45 0 -89 -7 -106 -15 -24 -12 -32
-12 -54 -1 l-25 14 35 34 c37 36 46 76 20 86 -21 8 -19 24 3 24 10 0 33 13 52
30 48 41 116 42 165 3z m-261 -64 c-27 -11 -54 -11 -54 0 0 11 49 20 64 12 5
-2 1 -8 -10 -12z m-9 -458 c3 -5 1 -12 -5 -16 -5 -3 -10 -2 -10 4 0 5 -8 12
-17 14 -14 4 -13 5 4 6 12 0 24 -3 28 -8z"/>
<path d="M1030 1509 c-13 -5 -38 -20 -55 -33 -16 -13 -48 -36 -70 -51 -29 -20
-33 -25 -15 -20 14 4 42 21 62 37 57 44 116 58 196 46 37 -5 77 -11 89 -13 12
-2 27 -6 32 -10 6 -3 11 -2 11 4 0 36 -189 66 -250 40z"/>
<path d="M1290 1460 c0 -5 10 -10 23 -10 18 0 19 2 7 10 -19 13 -30 13 -30 0z"/>
<path d="M1018 1410 c-15 -4 -42 -19 -60 -33 -18 -13 -48 -32 -66 -42 -19 -9
-32 -19 -29 -21 3 -3 18 1 35 10 16 8 32 12 36 9 3 -4 6 -1 6 5 0 7 6 12 13
12 7 0 17 8 24 19 6 10 23 21 37 23 23 5 25 2 23 -26 -1 -23 2 -31 18 -34 16
-2 17 -1 5 7 -12 9 -13 14 -2 31 8 14 9 20 1 20 -8 0 -8 5 1 15 14 17 3 19
-42 5z"/>
<path d="M457 1394 c-3 -5 5 -10 16 -11 49 -4 87 -16 99 -30 10 -12 8 -18 -12
-33 -29 -22 -80 -33 -105 -24 -13 5 -16 4 -11 -4 11 -19 65 -14 112 10 51 25
57 49 19 74 -29 19 -110 31 -118 18z"/>
<path d="M724 1271 c-5 -5 -18 -11 -29 -14 -11 -3 4 -4 32 -3 29 0 52 5 50 10
-4 13 -42 17 -53 7z"/>
<path d="M1380 1131 c0 -5 7 -11 15 -15 8 -3 15 -1 15 3 0 5 -7 11 -15 15 -8
3 -15 1 -15 -3z"/>
<path d="M586 923 c9 -21 23 -57 32 -81 17 -49 81 -108 156 -142 87 -39 225
-36 171 4 -11 8 -40 20 -65 26 -48 12 -210 104 -249 141 -13 12 -30 37 -37 55
-8 19 -17 34 -19 34 -3 0 2 -17 11 -37z"/>
<path d="M390 795 c0 -5 5 -17 10 -25 5 -8 10 -10 10 -5 0 6 -5 17 -10 25 -5
8 -10 11 -10 5z"/>
<path d="M600 773 c0 -19 99 -104 145 -124 53 -23 182 -39 171 -21 -4 7 -19
12 -34 12 -66 1 -189 55 -244 108 -21 20 -38 31 -38 25z"/>
<path d="M515 481 c-3 -5 -1 -12 5 -16 5 -3 10 1 10 9 0 18 -6 21 -15 7z"/>
<path d="M1268 583 c7 -3 16 -2 19 1 4 3 -2 6 -13 5 -11 0 -14 -3 -6 -6z"/>
<path d="M1458 583 c7 -3 16 -2 19 1 4 3 -2 6 -13 5 -11 0 -14 -3 -6 -6z"/>
<path d="M1315 536 c-23 -7 -50 -18 -60 -25 -20 -12 -20 -12 0 -6 78 27 136
37 195 32 40 -3 57 -2 45 3 -30 13 -134 10 -180 -4z"/>
<path d="M1418 503 c6 -2 18 -2 25 0 6 3 1 5 -13 5 -14 0 -19 -2 -12 -5z"/>
<path d="M1179 373 l-34 -38 38 34 c20 19 37 36 37 38 0 8 -8 0 -41 -34z"/>
<path d="M1120 358 l-33 -43 38 37 c22 21 36 40 33 43 -3 3 -20 -13 -38 -37z"/>
<path d="M1129 313 c-13 -16 -12 -17 4 -4 9 7 17 15 17 17 0 8 -8 3 -21 -13z"/>
</g>
</svg>
