<?xml version="1.0" encoding="UTF-8"?>
<svg version="1.1" xmlns="http://www.w3.org/2000/svg" width="64" height="64">
<path d="M0 0 C21.12 0 42.24 0 64 0 C64 21.12 64 42.24 64 64 C42.88 64 21.76 64 0 64 C0 42.88 0 21.76 0 0 Z " fill="#574FC4" transform="translate(0,0)"/>
<path d="M0 0 C21.12 0 42.24 0 64 0 C64 21.12 64 42.24 64 64 C42.88 64 21.76 64 0 64 C0 42.88 0 21.76 0 0 Z M10.0625 11.7421875 C4.26621891 18.08735884 2 24.03254932 2 32.62109375 C2.75570735 42.96483806 7.23169334 49.62529544 14.66015625 56.546875 C20.66192059 61.37098818 27.65437849 62.35058011 35.1875 61.8125 C44.94606001 60.45756733 51.81005473 55.23300544 57.875 47.6875 C62.54824464 40.61448109 62.62553968 32.07305842 61 24 C58.54517344 16.09000329 52.80641183 9.5646308 45.9609375 4.96484375 C33.44535014 -1.19322413 19.56249708 2.27263913 10.0625 11.7421875 Z " fill="#22202F" transform="translate(0,0)"/>
<path d="M0 0 C0.495 1.485 0.495 1.485 1 3 C1.61230469 3.27199219 2.22460938 3.54398438 2.85546875 3.82421875 C5.94109415 5.51597329 6.76338007 7.69504029 8.3125 10.8125 C8.84488281 11.85019531 9.37726562 12.88789063 9.92578125 13.95703125 C11.09299681 17.26343459 11.12587588 18.7247247 10 22 C7.77225808 24.88781359 6.39542515 25.88137245 2.875 26.9375 C1.92625 27.288125 0.9775 27.63875 0 28 C-0.72159424 29.64363134 -1.39351421 31.31050386 -2 33 C-5.58736204 34.45244414 -9.44093544 34.09776912 -13.25 34.0625 C-14.51328125 34.05347656 -15.7765625 34.04445312 -17.078125 34.03515625 C-18.04234375 34.02355469 -19.0065625 34.01195312 -20 34 C-20.27070313 33.03320312 -20.54140625 32.06640625 -20.8203125 31.0703125 C-21.20960937 30.05710937 -21.59890625 29.04390625 -22 28 C-24.88318775 26.81664605 -24.88318775 26.81664605 -28 26 C-30.80823005 23.87485294 -31.82680108 22.62281632 -32.7734375 19.21875 C-33.04715708 15.33004428 -32.22871904 13.60918301 -30.3125 10.25 C-29.79300781 9.30640625 -29.27351563 8.3628125 -28.73828125 7.390625 C-26.91561089 4.88394127 -25.73356017 4.26606997 -23 3 C-22.67 2.01 -22.34 1.02 -22 0 C-14.71444771 -1.53380048 -7.28555229 -1.53380048 0 0 Z " fill="#383D39" transform="translate(43,16)"/>
<path d="M0 0 C6.65011012 6.17326114 10.11838022 11.53299543 10.875 20.75 C10.86352643 28.43729355 9.15270787 34.3334382 4.875 40.75 C3.555 40.75 2.235 40.75 0.875 40.75 C0.875 41.41 0.875 42.07 0.875 42.75 C-1.105 42.75 -3.085 42.75 -5.125 42.75 C-5.785 40.11 -6.445 37.47 -7.125 34.75 C-6.01125 34.21375 -4.8975 33.6775 -3.75 33.125 C-0.93360183 31.50257184 -0.17728301 30.84620074 1.4375 27.875 C2.23204666 22.19966673 -0.24829949 18.45732811 -3.125 13.75 C-3.125 13.09 -3.125 12.43 -3.125 11.75 C-5.105 11.09 -7.085 10.43 -9.125 9.75 C-8.795 8.76 -8.465 7.77 -8.125 6.75 C-15.385 6.75 -22.645 6.75 -30.125 6.75 C-30.455 8.07 -30.785 9.39 -31.125 10.75 C-32.445 11.08 -33.765 11.41 -35.125 11.75 C-35.125 10.76 -35.125 9.77 -35.125 8.75 C-34.465 8.75 -33.805 8.75 -33.125 8.75 C-32.465 5.45 -31.805 2.15 -31.125 -1.25 C-32.115 -1.91 -33.105 -2.57 -34.125 -3.25 C-22.24833477 -8.71326601 -10.43886542 -8.68607086 0 0 Z " fill="#3CC3A6" transform="translate(51.125,9.25)"/>
<path d="M0 0 C0.94875 0.04125 1.8975 0.0825 2.875 0.125 C2.56578116 1.58403258 2.25251201 3.04220722 1.9375 4.5 C1.67646484 5.71816406 1.67646484 5.71816406 1.41015625 6.9609375 C0.875 9.125 0.875 9.125 -0.125 11.125 C-0.785 11.125 -1.445 11.125 -2.125 11.125 C-2.2075 12.115 -2.29 13.105 -2.375 14.125 C-2.79162649 17.24338619 -3.73448379 19.50116716 -5.25 22.25 C-6.64691086 24.87619242 -7.13015784 25.89289709 -7.0625 28.9375 C-5.45277642 32.69352169 -3.83242171 33.82181927 -0.0625 35.4375 C2.875 37.125 2.875 37.125 4.25 40.3125 C4.45625 41.240625 4.6625 42.16875 4.875 43.125 C4.070625 42.3825 3.26625 41.64 2.4375 40.875 C-1.33782929 37.69720484 -5.57315916 35.93562113 -10.125 34.125 C-12.3486068 36.0504644 -12.3486068 36.0504644 -13.125 39.125 C-15.92964574 29.90294451 -16.87501369 22.76393301 -14 13.5 C-11.18184077 8.42731339 -6.13470152 0.24538806 0 0 Z " fill="#575EB2" transform="translate(18.125,6.875)"/>
<path d="M0 0 C2.76101146 1.82109266 4.52100548 3.04201097 6 6 C6.35555556 13.46666667 6.35555556 13.46666667 4 17 C0.41849583 18.46440007 -3.43970507 18.09778051 -7.25 18.0625 C-8.51328125 18.05347656 -9.7765625 18.04445313 -11.078125 18.03515625 C-12.04234375 18.02355469 -13.0065625 18.01195313 -14 18 C-16.19526734 14.05729985 -16.72654675 10.4567441 -16 6 C-11.9541115 -0.64681681 -7.46898238 -2.08953674 0 0 Z " fill="#464645" transform="translate(37,32)"/>
<path d="M0 0 C0.33 0.66 0.66 1.32 1 2 C1.66 2.33 2.32 2.66 3 3 C3 4.65 3 6.3 3 8 C3.99 7.67 4.98 7.34 6 7 C6.99 7.33 7.98 7.66 9 8 C9 7.34 9 6.68 9 6 C9.99 6.33 10.98 6.66 12 7 C5.75344136 13.64091209 0.15213257 17.02913988 -9 18 C-12.39989739 17.93777966 -15.65696456 17.61387598 -19 17 C-19 16.67 -19 16.34 -19 16 C-17.02 16 -15.04 16 -13 16 C-13 15.34 -13 14.68 -13 14 C-14.32 13.34 -15.64 12.68 -17 12 C-16.67 10.68 -16.34 9.36 -16 8 C-12.7 8 -9.4 8 -6 8 C-5.67 6.68 -5.34 5.36 -5 4 C-4.01 4.33 -3.02 4.66 -2 5 C-1.34 3.35 -0.68 1.7 0 0 Z " fill="#5168B2" transform="translate(43,44)"/>
<path d="M0 0 C8.91 0 17.82 0 27 0 C27 0.33 27 0.66 27 1 C26.43152344 1.17015625 25.86304687 1.3403125 25.27734375 1.515625 C18.37234002 3.6828048 12.21828106 5.78358581 8 12 C7.34 12 6.68 12 6 12 C5.5978125 13.2065625 5.5978125 13.2065625 5.1875 14.4375 C3.79166667 18.625 2.39583333 22.8125 1 27 C0.67 27 0.34 27 0 27 C0 18.09 0 9.18 0 0 Z " fill="#FBFBFB" transform="translate(0,0)"/>
<path d="M0 0 C0.33 0 0.66 0 1 0 C1 8.91 1 17.82 1 27 C-7.91 27 -16.82 27 -26 27 C-26 26.67 -26 26.34 -26 26 C-25.43152344 25.82984375 -24.86304688 25.6596875 -24.27734375 25.484375 C-15.01268013 22.57660078 -7.83388792 18.9964725 -2.99609375 10.16796875 C-1.50548518 6.86270627 -0.5423077 3.57923083 0 0 Z " fill="#FCFCFA" transform="translate(63,37)"/>
<path d="M0 0 C0.33 0 0.66 0 1 0 C1.17015625 0.56847656 1.3403125 1.13695312 1.515625 1.72265625 C4.42339922 10.98731987 8.0035275 18.16611208 16.83203125 23.00390625 C20.13729373 24.49451482 23.42076917 25.4576923 27 26 C27 26.33 27 26.66 27 27 C18.09 27 9.18 27 0 27 C0 18.09 0 9.18 0 0 Z " fill="#FCFCFB" transform="translate(0,37)"/>
<path d="M0 0 C8.91 0 17.82 0 27 0 C27 8.91 27 17.82 27 27 C26.67 27 26.34 27 26 27 C25.82984375 26.43152344 25.6596875 25.86304687 25.484375 25.27734375 C22.57660078 16.01268013 18.9964725 8.83388792 10.16796875 3.99609375 C6.86270627 2.50548518 3.57923083 1.5423077 0 1 C0 0.67 0 0.34 0 0 Z " fill="#FBFCFD" transform="translate(37,0)"/>
<path d="M0 0 C6.47063189 4.92006572 10.09940393 10.92100639 12.3828125 18.6015625 C13.53536822 28.51354166 12.38604018 36.8884645 6.6953125 45.2890625 C6.0078125 43.7265625 6.0078125 43.7265625 5.6953125 41.2890625 C6.42535177 39.62988235 7.15843635 37.97190356 7.9140625 36.32421875 C10.93215042 28.46209973 9.97738506 19.9038711 6.6953125 12.2890625 C1.03130266 4.26141778 -4.91737867 -0.68894364 -14.62109375 -2.43359375 C-18.95019265 -2.88099698 -23.0203798 -2.35080164 -27.3046875 -1.7109375 C-28.84602766 -1.52077216 -30.3876718 -1.33304501 -31.9296875 -1.1484375 C-33.0434375 -1.0040625 -34.1571875 -0.8596875 -35.3046875 -0.7109375 C-25.32600477 -9.49217831 -10.38802798 -6.32944961 0 0 Z " fill="#172927" transform="translate(51.3046875,5.7109375)"/>
<path d="M0 0 C3 1 3 1 4.1328125 3.1796875 C4.46023437 4.06914062 4.78765625 4.95859375 5.125 5.875 C5.45757812 6.75929688 5.79015625 7.64359375 6.1328125 8.5546875 C6.77416325 10.36318105 7.39320681 12.17962044 8 14 C8.99 11.03 9.98 8.06 11 5 C12.05598787 9.22395147 11.79973883 10.88337714 10.75 15 C10.49734375 16.03125 10.2446875 17.0625 9.984375 18.125 C8.99702221 21.00869703 8.16402395 22.8565858 6 25 C4.68 25 3.36 25 2 25 C2 25.66 2 26.32 2 27 C0.02 27 -1.96 27 -4 27 C-4.66 24.36 -5.32 21.72 -6 19 C-4.88625 18.46375 -3.7725 17.9275 -2.625 17.375 C0.19139817 15.75257184 0.94771699 15.09620074 2.5625 12.125 C3.07835115 8.44034891 2.43517855 6.39910708 1 3 C0.67 2.01 0.34 1.02 0 0 Z " fill="#4794B5" transform="translate(50,25)"/>
<path d="M0 0 C6.80530563 -0.41665137 11.39305777 0.92629596 16.75 5.1875 C19.54517986 8.68147482 20.63258259 11.75380911 22 16 C21.34 16 20.68 16 20 16 C20 16.66 20 17.32 20 18 C19.01 18.33 18.02 18.66 17 19 C16.773125 18.360625 16.54625 17.72125 16.3125 17.0625 C15.14749104 14.72806339 15.14749104 14.72806339 12.375 14.25 C11.59125 14.1675 10.8075 14.085 10 14 C10 13.01 10 12.02 10 11 C10.66 11 11.32 11 12 11 C12 10.34 12 9.68 12 9 C11.40832031 9.08378906 10.81664062 9.16757813 10.20703125 9.25390625 C5.90060543 9.80889424 2.24447356 10.23226652 -2 9 C1 7 1 7 3 6 C2.42655063 3.13275314 2.1385485 2.1385485 0 0 Z " fill="#36D5A5" transform="translate(36,5)"/>
<path d="M0 0 C1.79296875 0.140625 1.79296875 0.140625 4 1 C5.73828125 3.546875 5.73828125 3.546875 7.3125 6.75 C7.84488281 7.79671875 8.37726562 8.8434375 8.92578125 9.921875 C10.08575095 13.24571546 10.1318856 14.71295847 9 18 C6.18461404 21.6495744 3.39333304 22.80181826 -1 24 C-1.25048924 16.61056751 -1.25048924 16.61056751 0 13.5625 C1.47480474 9.78331286 1.33924921 6.01576388 1 2 C0.67 1.34 0.34 0.68 0 0 Z " fill="#2A2A29" transform="translate(44,20)"/>
<path d="M0 0 C0.66 0.33 1.32 0.66 2 1 C1.814375 1.66 1.62875 2.32 1.4375 3 C0.79995406 7.37174358 0.99210017 11.98420035 3 16 C3.13415472 18.6723621 3.04318541 21.32250488 3 24 C-1.38750292 22.80340829 -4.23321262 21.68904984 -7 18 C-8.01008901 14.40913357 -8.21519401 12.55597905 -6.85546875 9.04296875 C-6.30503906 8.10066406 -5.75460938 7.15835937 -5.1875 6.1875 C-4.37345703 4.75470703 -4.37345703 4.75470703 -3.54296875 3.29296875 C-2 1 -2 1 0 0 Z " fill="#272829" transform="translate(18,20)"/>
<path d="M0 0 C-0.30921884 1.45903258 -0.62248799 2.91720722 -0.9375 4.375 C-1.11152344 5.18710938 -1.28554688 5.99921875 -1.46484375 6.8359375 C-2 9 -2 9 -3 11 C-3.66 11 -4.32 11 -5 11 C-5.0825 12.010625 -5.165 13.02125 -5.25 14.0625 C-5.84006068 18.37786916 -7.68916002 21.34738197 -10 25 C-10.66 25 -11.32 25 -12 25 C-11.01 21.04 -10.02 17.08 -9 13 C-9.66 13 -10.32 13 -11 13 C-12.625 11.5 -12.625 11.5 -14 10 C-11.53087988 3.58028769 -7.1083849 -1.01548356 0 0 Z " fill="#4498B3" transform="translate(21,7)"/>
<path d="M0 0 C4.07278999 3.52975132 5.71455168 6.74113168 6.1875 12.140625 C6.32371055 17.1463626 5.61056905 21.26895343 4 26 C2 25 2 25 1.03515625 22.6015625 C0.38850768 20.62266205 -0.25733029 18.64349652 -0.90234375 16.6640625 C-1.99092679 14.02202111 -2.95732787 12.90465374 -5 11 C-6.1875 7.8125 -6.1875 7.8125 -7 5 C-5.125 5.3125 -5.125 5.3125 -3 6 C-2.01 7.485 -2.01 7.485 -1 9 C-0.34 9 0.32 9 1 9 C1 5.72724974 0.70074844 3.153368 0 0 Z " fill="#3BC8AB" transform="translate(55,14)"/>
<path d="M0 0 C2.31 0 4.62 0 7 0 C7 0.99 7 1.98 7 3 C6.34 3 5.68 3 5 3 C5 3.66 5 4.32 5 5 C4.01 5.495 4.01 5.495 3 6 C6.465 7.485 6.465 7.485 10 9 C10 9.66 10 10.32 10 11 C5.56457749 13.60077047 1.88234589 13.2541806 -3 12 C-5.5625 10.125 -5.5625 10.125 -7 8 C-7 7.01 -7 6.02 -7 5 C-4 3 -4 3 -1 3 C-0.67 2.01 -0.34 1.02 0 0 Z M5 8 C6 10 6 10 6 10 Z " fill="#414142" transform="translate(28,36)"/>
<path d="M0 0 C0.99 0.33 1.98 0.66 3 1 C3.33 2.65 3.66 4.3 4 6 C5.32 6 6.64 6 8 6 C8.66 4.02 9.32 2.04 10 0 C11.32 0.33 12.64 0.66 14 1 C14 2.65 14 4.3 14 6 C14.66 6.33 15.32 6.66 16 7 C16 8.32 16 9.64 16 11 C15.41992188 10.77183594 14.83984375 10.54367188 14.2421875 10.30859375 C7.22652702 7.72692331 2.89970723 7.95601152 -4 11 C-4 8.69 -4 6.38 -4 4 C-2.68 4 -1.36 4 0 4 C-0.33 3.01 -0.66 2.02 -1 1 C-0.67 0.67 -0.34 0.34 0 0 Z " fill="#262425" transform="translate(26,24)"/>
<path d="M0 0 C-4.455 0.495 -4.455 0.495 -9 1 C-9 1.66 -9 2.32 -9 3 C-8.34 3 -7.68 3 -7 3 C-6.67 4.32 -6.34 5.64 -6 7 C-7.98 7.99 -7.98 7.99 -10 9 C-9.34 9 -8.68 9 -8 9 C-8 9.99 -8 10.98 -8 12 C-9.65 12.33 -11.3 12.66 -13 13 C-13.33 14.32 -13.66 15.64 -14 17 C-15.32 17.33 -16.64 17.66 -18 18 C-18 17.01 -18 16.02 -18 15 C-17.34 15 -16.68 15 -16 15 C-15.34 11.7 -14.68 8.4 -14 5 C-14.99 4.34 -15.98 3.68 -17 3 C-11.09736113 0.28478612 -6.54260437 -1.63565109 0 0 Z " fill="#43B1AF" transform="translate(34,3)"/>
<path d="M0 0 C1.32 0.33 2.64 0.66 4 1 C4 1.66 4 2.32 4 3 C4.99 2.67 5.98 2.34 7 2 C6.69078116 3.45903258 6.37751201 4.91720722 6.0625 6.375 C5.88847656 7.18710937 5.71445313 7.99921875 5.53515625 8.8359375 C5 11 5 11 4 13 C3.93049459 14.54023996 3.91547643 16.08334988 3.9375 17.625 C3.95103516 18.85089844 3.95103516 18.85089844 3.96484375 20.1015625 C3.97644531 20.72804688 3.98804688 21.35453125 4 22 C3.34 21.67 2.68 21.34 2 21 C1.5859375 18.71484375 1.5859375 18.71484375 1.375 15.9375 C1.26285156 14.55884766 1.26285156 14.55884766 1.1484375 13.15234375 C1.07496094 12.08693359 1.07496094 12.08693359 1 11 C0.01 10.67 -0.98 10.34 -2 10 C-2.25 3.375 -2.25 3.375 0 0 Z " fill="#4E77B9" transform="translate(6,17)"/>
<path d="M0 0 C0.66 0.33 1.32 0.66 2 1 C2 2.65 2 4.3 2 6 C2.99 5.67 3.98 5.34 5 5 C5.99 5.33 6.98 5.66 8 6 C8 5.34 8 4.68 8 4 C8.99 4.33 9.98 4.66 11 5 C9.54712339 6.33927721 8.08752741 7.67126847 6.625 9 C5.40683594 10.11375 5.40683594 10.11375 4.1640625 11.25 C2 13 2 13 0 13 C-1.66666667 11.33333333 -3.33333333 9.66666667 -5 8 C-4.01 8 -3.02 8 -2 8 C-2 7.34 -2 6.68 -2 6 C-2.66 5.67 -3.32 5.34 -4 5 C-3.34 5 -2.68 5 -2 5 C-1.7834375 4.0409375 -1.7834375 4.0409375 -1.5625 3.0625 C-1 1 -1 1 0 0 Z " fill="#4E7EBD" transform="translate(44,46)"/>
<path d="M0 0 C2 2 2 2 2 6 C3.66279327 7.0064275 5.32983484 8.00585407 7 9 C7.71727778 10.64551962 8.38325228 12.31422289 9 14 C11.02040748 16.27191416 11.02040748 16.27191416 13 18 C8.51051566 18 8.07365969 17.62632372 4.9375 14.75 C4.26589844 14.14671875 3.59429687 13.5434375 2.90234375 12.921875 C-0.91437478 9.06597045 -2.38017869 6.45442751 -3 1 C-2.01 0.67 -1.02 0.34 0 0 Z " fill="#5B47C6" transform="translate(8,40)"/>
<path d="M0 0 C1.04929053 4.19716213 0.82255514 5.89825326 -0.1875 10 C-0.42855469 11.03125 -0.66960938 12.0625 -0.91796875 13.125 C-2.10407713 16.27653708 -3.4718643 17.82255807 -6 20 C-6 19.01 -6 18.02 -6 17 C-6.66 16.67 -7.32 16.34 -8 16 C-7.67 15.34 -7.34 14.68 -7 14 C-7.16371094 13.38640625 -7.32742187 12.7728125 -7.49609375 12.140625 C-8.34825255 8.52060159 -6.99974852 5.52852418 -6 2 C-4.79371992 4.33214148 -3.8345262 6.49642139 -3 9 C-2.01 6.03 -1.02 3.06 0 0 Z " fill="#48A7AB" transform="translate(61,30)"/>
<path d="M0 0 C1.79296875 0.140625 1.79296875 0.140625 4 1 C5.73828125 3.546875 5.73828125 3.546875 7.3125 6.75 C7.84488281 7.79671875 8.37726562 8.8434375 8.92578125 9.921875 C10.08575095 13.24571546 10.1318856 14.71295847 9 18 C6.18461404 21.6495744 3.39333304 22.80181826 -1 24 C-0.375 21.5625 -0.375 21.5625 1 19 C4.125 18.1875 4.125 18.1875 7 18 C7 16.02 7 14.04 7 12 C6.34 11.67 5.68 11.34 5 11 C4.67 10.01 4.34 9.02 4 8 C3.67 8 3.34 8 3 8 C3 6.02 3 4.04 3 2 C2.01 1.67 1.02 1.34 0 1 C0 0.67 0 0.34 0 0 Z " fill="#15252D" transform="translate(44,20)"/>
<path d="M0 0 C2.97 0 5.94 0 9 0 C8.625 2.4375 8.625 2.4375 8 5 C7.01 5.495 7.01 5.495 6 6 C6.33 7.32 6.66 8.64 7 10 C3.7 9.67 0.4 9.34 -3 9 C-3 8.67 -3 8.34 -3 8 C-1.02 8 0.96 8 3 8 C3 7.34 3 6.68 3 6 C1.68 5.34 0.36 4.68 -1 4 C-0.67 2.68 -0.34 1.36 0 0 Z " fill="#575EBF" transform="translate(27,52)"/>
<path d="M0 0 C0.33 0 0.66 0 1 0 C1.13535156 0.7734375 1.27070312 1.546875 1.41015625 2.34375 C2.83291882 9.22753539 4.47719564 13.46666913 9.671875 18.28125 C10.32929688 19.13203125 10.32929688 19.13203125 11 20 C10.703125 22.21875 10.703125 22.21875 10 24 C4.83525182 18.7003059 0.76349463 14.28911113 -1 7 C-0.93378501 4.51220832 -0.56023733 2.44467197 0 0 Z " fill="#261D3A" transform="translate(2,34)"/>
<path d="M0 0 C6.93 0 13.86 0 21 0 C21 0.66 21 1.32 21 2 C20.34 2 19.68 2 19 2 C19 2.99 19 3.98 19 5 C19.99 5.33 20.98 5.66 22 6 C22.33 7.65 22.66 9.3 23 11 C22.79375 10.38125 22.5875 9.7625 22.375 9.125 C20.45224112 6.15346355 18.33405473 5.86975341 15 5 C15.33 4.01 15.66 3.02 16 2 C11.05 2 6.1 2 1 2 C0.67 1.34 0.34 0.68 0 0 Z " fill="#4BC8A2" transform="translate(27,14)"/>
<path d="M0 0 C0.66 0.33 1.32 0.66 2 1 C0.35 2.65 -1.3 4.3 -3 6 C-2.484375 6.350625 -1.96875 6.70125 -1.4375 7.0625 C0 9 0 9 -0.1875 12.625 C-0.455625 13.73875 -0.72375 14.8525 -1 16 C-1.66 16.33 -2.32 16.66 -3 17 C-3 15.68 -3 14.36 -3 13 C-3.66 13 -4.32 13 -5 13 C-6.625 11.5 -6.625 11.5 -8 10 C-6.34908222 5.70761377 -3.26245434 3.1206085 0 0 Z " fill="#4E88B0" transform="translate(15,7)"/>
<path d="M0 0 C1.20628008 2.33214148 2.1654738 4.49642139 3 7 C3.99 7 4.98 7 6 7 C8 10.75 8 10.75 8 13 C4.47605555 12.13859136 2.46143628 11.53586149 0.0625 8.75 C-1.23052342 5.40335115 -0.87794657 3.43197297 0 0 Z " fill="#15212A" transform="translate(11,30)"/>
<path d="M0 0 C3 1 3 1 4.1875 2.5625 C5.36098332 6.08294997 5.70570755 9.37064687 5 13 C2.59906707 16.22410993 1.05749882 17.69450034 -2.8125 18.8125 C-3.534375 18.874375 -4.25625 18.93625 -5 19 C-4.401875 18.566875 -3.80375 18.13375 -3.1875 17.6875 C0.834501 14.6517499 0.834501 14.6517499 2.875 10.125 C3.02369997 6.40750063 2.0838497 5.00074357 0 2 C0 1.34 0 0.68 0 0 Z " fill="#4C869B" transform="translate(50,25)"/>
<path d="M0 0 C0.99 0.66 1.98 1.32 3 2 C0.03 4.64 -2.94 7.28 -6 10 C-6.99 9.34 -7.98 8.68 -9 8 C-8.34 8 -7.68 8 -7 8 C-6.773125 7.4225 -6.54625 6.845 -6.3125 6.25 C-4.66961977 3.4336339 -2.60466773 1.91922886 0 0 Z " fill="#28313A" transform="translate(15,4)"/>
<path d="M0 0 C3 1 3 1 4 3 C6.02333934 3.46842712 6.02333934 3.46842712 8.375 3.625 C9.16648437 3.69976562 9.95796875 3.77453125 10.7734375 3.8515625 C12.51246725 3.96749782 14.25711002 4 16 4 C16 4.66 16 5.32 16 6 C11.38 6 6.76 6 2 6 C1.34 4.02 0.68 2.04 0 0 Z " fill="#45416F" transform="translate(21,44)"/>
<path d="M0 0 C2.15059309 3.53186832 2.3797728 6.66287993 2.625 10.75 C2.69976563 11.92046875 2.77453125 13.0909375 2.8515625 14.296875 C2.90054687 15.18890625 2.94953125 16.0809375 3 17 C2.34 16.67 1.68 16.34 1 16 C0.5859375 13.71484375 0.5859375 13.71484375 0.375 10.9375 C0.26285156 9.55884766 0.26285156 9.55884766 0.1484375 8.15234375 C0.07496094 7.08693359 0.07496094 7.08693359 0 6 C-0.66 6 -1.32 6 -2 6 C-1.125 1.125 -1.125 1.125 0 0 Z " fill="#526CBF" transform="translate(7,22)"/>
<path d="M0 0 C0.66 0 1.32 0 2 0 C3.15271525 1.24853289 4.24895002 2.54968938 5.3125 3.875 C7.96037737 7.0103527 9.88449127 9.00230091 14 10 C13.67 10.66 13.34 11.32 13 12 C9.02031425 10.66182195 6.61251238 8.99662286 3.6875 6 C2.99011719 5.29875 2.29273438 4.5975 1.57421875 3.875 C0 2 0 2 0 0 Z " fill="#5943A9" transform="translate(7,47)"/>
<path d="M0 0 C1.485 0.99 1.485 0.99 3 2 C3.66 1.67 4.32 1.34 5 1 C5.125 4.375 5.125 4.375 5 8 C4.34 8.66 3.68 9.32 3 10 C2.49596232 8.70990357 1.99690074 7.41786211 1.5 6.125 C1.2215625 5.40570313 0.943125 4.68640625 0.65625 3.9453125 C0 2 0 2 0 0 Z " fill="#3EBDAE" transform="translate(55,30)"/>
<path d="M0 0 C0.99 0.33 1.98 0.66 3 1 C1.54712339 2.33927721 0.08752741 3.67126847 -1.375 5 C-2.18710937 5.7425 -2.99921875 6.485 -3.8359375 7.25 C-6 9 -6 9 -8 9 C-8 8.01 -8 7.02 -8 6 C-6.02 5.34 -4.04 4.68 -2 4 C-2 3.34 -2 2.68 -2 2 C-1.34 2 -0.68 2 0 2 C0 1.34 0 0.68 0 0 Z " fill="#5582A9" transform="translate(52,50)"/>
<path d="M0 0 C3.47478479 3.01148016 4.97043629 5.50735835 6 10 C5.625 12.375 5.625 12.375 5 14 C4.34 12.35 3.68 10.7 3 9 C2.01 9.495 2.01 9.495 1 10 C1.20625 9.46375 1.4125 8.9275 1.625 8.375 C2.1314747 5.16732692 1.15400225 2.98682934 0 0 Z " fill="#4CCBA2" transform="translate(55,14)"/>
<path d="M0 0 C2.31 1.98 4.62 3.96 7 6 C6.67 6.66 6.34 7.32 6 8 C2.2047869 6.50902342 0.38957269 4.24299151 -2 1 C-1.34 0.67 -0.68 0.34 0 0 Z " fill="#2C3A35" transform="translate(51,6)"/>
<path d="M0 0 C-1.15628906 0.29003906 -1.15628906 0.29003906 -2.3359375 0.5859375 C-3.33882812 0.84632812 -4.34171875 1.10671875 -5.375 1.375 C-6.87160156 1.75785156 -6.87160156 1.75785156 -8.3984375 2.1484375 C-11.12541015 2.82404319 -11.12541015 2.82404319 -13 5 C-14.32 4.34 -15.64 3.68 -17 3 C-11.24504253 0.35271956 -6.34384207 -1.79312024 0 0 Z " fill="#51AA9F" transform="translate(34,3)"/>
<path d="M0 0 C1.98 0 3.96 0 6 0 C5.649375 0.61875 5.29875 1.2375 4.9375 1.875 C4.628125 2.57625 4.31875 3.2775 4 4 C4.33 4.66 4.66 5.32 5 6 C1.7 5.67 -1.6 5.34 -5 5 C-5 4.67 -5 4.34 -5 4 C-3.02 4 -1.04 4 1 4 C0.67 2.68 0.34 1.36 0 0 Z " fill="#5658AF" transform="translate(29,56)"/>
<path d="M0 0 C1.32 0.33 2.64 0.66 4 1 C3.1875 3.4375 3.1875 3.4375 2 6 C1.01 6.33 0.02 6.66 -1 7 C-2 4 -2 4 -1.0625 1.8125 C-0.5365625 0.9153125 -0.5365625 0.9153125 0 0 Z " fill="#1B1D1B" transform="translate(36,24)"/>
<path d="M0 0 C0.66 0 1.32 0 2 0 C0.78065514 4.03321763 -0.55954927 7.54269479 -3 11 C-3.66 11 -4.32 11 -5 11 C-3.78065514 6.96678237 -2.44045073 3.45730521 0 0 Z " fill="#55A0B1" transform="translate(14,21)"/>
<path d="M0 0 C0.66 0.33 1.32 0.66 2 1 C1.34 2.65 0.68 4.3 0 6 C-0.99 6 -1.98 6 -3 6 C-3 6.99 -3 7.98 -3 9 C-3.99 9.33 -4.98 9.66 -6 10 C-2.62068966 1.31034483 -2.62068966 1.31034483 0 0 Z " fill="#12302B" transform="translate(18,20)"/>
<path d="M0 0 C0.66 0.99 1.32 1.98 2 3 C-0.97 5.475 -0.97 5.475 -4 8 C-4 4 -4 4 -2 1.75 C-1.01 0.88375 -1.01 0.88375 0 0 Z " fill="#2C333B" transform="translate(56,49)"/>
<path d="M0 0 C0.99 0.495 0.99 0.495 2 1 C2.33333333 2.66666667 2.66666667 4.33333333 3 6 C3.66 6.33 4.32 6.66 5 7 C4.34 7.66 3.68 8.32 3 9 C2.67 9.99 2.34 10.98 2 12 C0.40861915 7.82262526 -0.21278058 4.46839215 0 0 Z " fill="#554BAD" transform="translate(3,34)"/>
<path d="M0 0 C2.56616632 3.84924948 2.55097676 6.4349304 3 11 C2.01 11 1.02 11 0 11 C-1.26026798 8.47946405 -0.91874445 7.1457902 -0.5625 4.375 C-0.46066406 3.55773437 -0.35882813 2.74046875 -0.25390625 1.8984375 C-0.17011719 1.27195312 -0.08632813 0.64546875 0 0 Z " fill="#34CDA0" transform="translate(58,22)"/>
<path d="M0 0 C1.32 0 2.64 0 4 0 C5.75 2 5.75 2 7 4 C4.69 4 2.38 4 0 4 C0 2.68 0 1.36 0 0 Z " fill="#5461B9" transform="translate(33,57)"/>
<path d="M0 0 C4.75 0.75 4.75 0.75 7 3 C6.67 4.32 6.34 5.64 6 7 C4.02 4.69 2.04 2.38 0 0 Z " fill="#3C3449" transform="translate(6,51)"/>
<path d="M0 0 C1.98 0 3.96 0 6 0 C6 0.99 6 1.98 6 3 C5.34 3 4.68 3 4 3 C4 3.66 4 4.32 4 5 C3.34 5 2.68 5 2 5 C2 4.34 2 3.68 2 3 C1.34 3 0.68 3 0 3 C0 2.01 0 1.02 0 0 Z " fill="#211F20" transform="translate(29,36)"/>
<path d="M0 0 C3.95820859 0.56545837 6.6659053 1.80902348 10 4 C7.83032311 4.95465783 6.43671207 5.14401212 4.17578125 4.3984375 C2.4315257 3.64129615 0.71372869 2.82390802 -1 2 C-0.67 1.34 -0.34 0.68 0 0 Z " fill="#13291F" transform="translate(41,2)"/>
<path d="M0 0 C2.97 0 5.94 0 9 0 C9 0.66 9 1.32 9 2 C3.375 3.125 3.375 3.125 0 2 C0 1.34 0 0.68 0 0 Z " fill="#504DB3" transform="translate(28,50)"/>
<path d="M0 0 C0.66 0 1.32 0 2 0 C3.625 2.5 3.625 2.5 5 5 C3.35 5.66 1.7 6.32 0 7 C0 4.69 0 2.38 0 0 Z " fill="#292C27" transform="translate(22,28)"/>
<path d="M0 0 C0.66 0 1.32 0 2 0 C4.6875 2.8125 4.6875 2.8125 7 6 C6.67 6.99 6.34 7.98 6 9 C5.938125 8.071875 5.938125 8.071875 5.875 7.125 C5.58625 6.42375 5.2975 5.7225 5 5 C2.00384054 3.6954344 2.00384054 3.6954344 -1 3 C-0.67 2.01 -0.34 1.02 0 0 Z " fill="#53B39F" transform="translate(43,16)"/>
<path d="M0 0 C0.99 0 1.98 0 3 0 C2.49396008 2.16874252 2.00016187 3.99967627 1 6 C0.01 5.67 -0.98 5.34 -2 5 C-1.34 3.35 -0.68 1.7 0 0 Z " fill="#444661" transform="translate(40,43)"/>
<path d="M0 0 C2.0625 0.25 2.0625 0.25 4 1 C4.33 1.66 4.66 2.32 5 3 C4.01 3 3.02 3 2 3 C2 3.99 2 4.98 2 6 C1.01 5.67 0.02 5.34 -1 5 C-0.67 4.67 -0.34 4.34 0 4 C-0.66 3.34 -1.32 2.68 -2 2 C-1.34 1.34 -0.68 0.68 0 0 Z " fill="#38B59D" transform="translate(25,10)"/>
<path d="M0 0 C1.32 0 2.64 0 4 0 C2.70700306 2.88437779 1.34058637 4.87219421 -1 7 C-0.67 4.69 -0.34 2.38 0 0 Z " fill="#2C2B30" transform="translate(15,26)"/>
<path d="M0 0 C0.99 1.32 1.98 2.64 3 4 C1.68 5.65 0.36 7.3 -1 9 C-1.125 2.25 -1.125 2.25 0 0 Z " fill="#4C6DAC" transform="translate(5,18)"/>
</svg>
