<?xml version="1.0" standalone="no"?>
<!DOCTYPE svg PUBLIC "-//W3C//DTD SVG 20010904//EN"
 "http://www.w3.org/TR/2001/REC-SVG-20010904/DTD/svg10.dtd">
<svg version="1.0" xmlns="http://www.w3.org/2000/svg"
 width="64.000000pt" height="64.000000pt" viewBox="0 0 64.000000 64.000000"
 preserveAspectRatio="xMidYMid meet">

<g transform="translate(0.000000,64.000000) scale(0.100000,-0.100000)"
fill="#000000" stroke="none">
<path d="M245 631 c-98 -28 -176 -92 -216 -177 -32 -69 -32 -198 0 -267 32
-69 82 -120 149 -153 49 -24 69 -28 142 -28 73 0 93 4 142 28 67 33 117 84
149 153 35 74 32 198 -5 275 -51 104 -146 166 -266 173 -36 2 -78 0 -95 -4z
m177 -32 c40 -10 126 -83 157 -132 61 -100 39 -274 -46 -349 -18 -17 -21 -16
-56 13 -43 35 -50 69 -14 69 29 0 89 50 94 78 1 12 0 22 -5 22 -4 0 -23 29
-42 64 -19 36 -45 69 -57 75 -13 6 -23 17 -23 26 0 16 -13 18 -110 18 -97 0
-110 -2 -110 -18 0 -9 -10 -20 -23 -26 -12 -6 -38 -39 -57 -75 -30 -56 -50
-78 -50 -58 0 11 65 129 72 132 5 2 -5 20 -22 40 l-30 36 23 24 c64 69 178 92
299 61z"/>
</g>
</svg>
