<?xml version="1.0" encoding="UTF-8"?>
<svg version="1.1" xmlns="http://www.w3.org/2000/svg" width="64" height="64">
<path d="M0 0 C21.12 0 42.24 0 64 0 C64 21.12 64 42.24 64 64 C42.88 64 21.76 64 0 64 C0 42.88 0 21.76 0 0 Z " fill="#FBD061" transform="translate(0,0)"/>
<path d="M0 0 C3.98959089 2.40461728 6.83505204 5.30243605 9.96875 8.71484375 C10.55333984 9.31876953 11.13792969 9.92269531 11.74023438 10.54492188 C15.1401125 14.20481385 16.92544573 16.70526825 17.15625 21.90234375 C15.83625 21.24234375 14.51625 20.58234375 13.15625 19.90234375 C13.06150391 20.8459375 13.06150391 20.8459375 12.96484375 21.80859375 C11.94201204 28.95764906 9.51463677 33.08789689 4.15625 37.90234375 C-1.31649273 41.75813976 -6.27897997 42.64904745 -12.84375 41.90234375 C-18.85619331 40.08577631 -23.20012446 37.01828457 -27.84375 32.90234375 C-28.75125 32.38671875 -29.65875 31.87109375 -30.59375 31.33984375 C-33.06997354 29.75781204 -33.8160358 28.6117721 -34.84375 25.90234375 C-33.833125 25.84046875 -32.8225 25.77859375 -31.78125 25.71484375 C-27.16991326 25.09372492 -24.43050372 22.75710691 -20.84375 19.90234375 C-19.55803571 27.33091518 -19.55803571 27.33091518 -20.84375 30.90234375 C-16.08322038 32.87622188 -12.87886899 32.90936755 -7.84375 31.90234375 C-7.51375 29.92234375 -7.18375 27.94234375 -6.84375 25.90234375 C-9.48375 25.90234375 -12.12375 25.90234375 -14.84375 25.90234375 C-14.10125 24.72671875 -14.10125 24.72671875 -13.34375 23.52734375 C-11.67837035 21.11682048 -11.67837035 21.11682048 -11.84375 18.90234375 C-13.51643911 17.08653686 -15.31346278 15.43886721 -17.1171875 13.75390625 C-19.89532873 10.77463262 -20.81175159 8.73430246 -20.96875 4.65234375 C-20.9275 3.74484375 -20.88625 2.83734375 -20.84375 1.90234375 C-13.85759397 -0.87229978 -7.25399056 -2.79996064 0 0 Z " fill="#0B0402" transform="translate(40.84375,12.09765625)"/>
<path d="M0 0 C1.95917659 0.0868748 3.91741871 0.19504512 5.875 0.3125 C7.51082031 0.39951172 7.51082031 0.39951172 9.1796875 0.48828125 C10.11039063 0.65714844 11.04109375 0.82601563 12 1 C12.66 1.99 13.32 2.98 14 4 C13.360625 4.103125 12.72125 4.20625 12.0625 4.3125 C11.0415625 4.6528125 11.0415625 4.6528125 10 5 C9.67 5.99 9.34 6.98 9 8 C6.9375 8.6875 6.9375 8.6875 5 9 C4.4884562 14.37120991 5.72757402 16.78029282 9 21 C10.9617478 23.36845161 12.95854245 25.69995782 15 28 C13.68 29.32 12.36 30.64 11 32 C13.31 32 15.62 32 18 32 C18.75 34.25 18.75 34.25 19 37 C17.5625 39.375 17.5625 39.375 15 41 C10.69904198 41.21108996 6.6673821 40.29211381 3 38 C3.185625 36.906875 3.37125 35.81375 3.5625 34.6875 C4.2578068 31.06375867 4.2578068 31.06375867 3 28 C2.01 28.33 1.02 28.66 0 29 C0 28.34 0 27.68 0 27 C-0.66 27 -1.32 27 -2 27 C-2 27.66 -2 28.32 -2 29 C-3.32 29.33 -4.64 29.66 -6 30 C-6 30.66 -6 31.32 -6 32 C-12.625 32.125 -12.625 32.125 -16 31 C-16.57131842 23.54112058 -15.64124055 17.60121674 -12 11 C-9.4375 8.0625 -9.4375 8.0625 -7 6 C-6.484375 5.443125 -5.96875 4.88625 -5.4375 4.3125 C-3.76543483 2.7858318 -2.05771777 1.92242521 0 1 C0 0.67 0 0.34 0 0 Z " fill="#FCD05B" transform="translate(16,5)"/>
<path d="M0 0 C21.12 0 42.24 0 64 0 C64 8.91 64 17.82 64 27 C63.67 27 63.34 27 63 27 C62.81824219 26.40832031 62.63648438 25.81664063 62.44921875 25.20703125 C59.88833669 16.6732828 59.88833669 16.6732828 53.5625 10.8125 C52.386875 10.214375 51.21125 9.61625 50 9 C49.195625 8.5875 48.39125 8.175 47.5625 7.75 C47.046875 7.5025 46.53125 7.255 46 7 C46 7.66 46 8.32 46 9 C45.34 9 44.68 9 44 9 C45.19899698 12.0831351 46.47700477 15.06279492 48 18 C47.52949219 17.65066406 47.05898438 17.30132813 46.57421875 16.94140625 C45.95160156 16.48636719 45.32898437 16.03132813 44.6875 15.5625 C44.07261719 15.11003906 43.45773438 14.65757813 42.82421875 14.19140625 C39.18703038 11.81594062 36.03380455 11.89210963 31.8125 11.9375 C30.72582031 11.94652344 29.63914062 11.95554687 28.51953125 11.96484375 C27.68808594 11.97644531 26.85664063 11.98804688 26 12 C26 11.34 26 10.68 26 10 C26.99 9.34 27.98 8.68 29 8 C27.27181875 6.27181875 24.9192835 6.54848482 22.5625 6.3125 C21.07943359 6.15201172 21.07943359 6.15201172 19.56640625 5.98828125 C16.83105742 5.69969548 16.83105742 5.69969548 15 8 C12.32454913 9.71503261 10.0242787 10.9919071 7 12 C5.24052538 14.89335826 4.11648904 18.10489443 2.875 21.25 C2.52179688 22.14203125 2.16859375 23.0340625 1.8046875 23.953125 C1.53914062 24.62859375 1.27359375 25.3040625 1 26 C0.67 26 0.34 26 0 26 C0 17.42 0 8.84 0 0 Z " fill="#FBD066" transform="translate(0,0)"/>
<path d="M0 0 C0.66 0 1.32 0 2 0 C2.33 0.99 2.66 1.98 3 3 C-0.20336822 5.83374881 -2.78087253 6.5205537 -7 7 C-4.60552817 10.85776017 -2.0139715 12.03236691 2 14 C2.99 14.845625 3.98 15.69125 5 16.5625 C9.95346276 20.58718849 14.52135195 21.39188138 20.75 21.265625 C24.2571435 20.85158723 26.86125753 19.60139922 30 18 C30.66 17.67 31.32 17.34 32 17 C32 18.32 32 19.64 32 21 C26.62421315 22.75623315 21.69889745 23.39316874 16.0625 23.625 C14.89364258 23.68300781 14.89364258 23.68300781 13.70117188 23.7421875 C11.80112621 23.83544127 9.90059722 23.91875962 8 24 C8 24.66 8 25.32 8 26 C6.68 26 5.36 26 4 26 C4 26.99 4 27.98 4 29 C6.64 29.66 9.28 30.32 12 31 C12 31.33 12 31.66 12 32 C3.42 32 -5.16 32 -14 32 C-14 22.76 -14 13.52 -14 4 C-10.7 4.33 -7.4 4.66 -4 5 C-4 4.34 -4 3.68 -4 3 C-2.68 2.67 -1.36 2.34 0 2 C0 1.34 0 0.68 0 0 Z " fill="#F5CE65" transform="translate(14,32)"/>
<path d="M0 0 C7.5469951 0.13721809 11.53680357 2.93549838 17 8 C20.7278167 12.01457184 22.74160247 15.51938375 23.3125 21 C22.93029115 24.66920494 22.43244409 26.19900377 20 29 C14.79235512 32.40707202 10.15818443 33.59456779 4.01953125 32.5625 C1.34423126 31.81734875 -0.77655123 30.64965554 -3 29 C-1 28 -1 28 2.875 28.5625 C5.55676989 28.94213349 6.82420577 29.05859808 9.4375 28.1875 C11.15043305 27.06705694 11.15043305 27.06705694 12 25 C12.35031691 19.65766707 12.49335294 16.30846863 9 12 C7.02043058 10.30911778 5.02054804 8.64169528 3 7 C0 3.6 0 3.6 0 0 Z " fill="#F9FAF9" transform="translate(24,19)"/>
<path d="M0 0 C4.36889072 1.65023475 7.086647 4.90601618 10.1875 8.25 C10.73341797 8.81074219 11.27933594 9.37148438 11.84179688 9.94921875 C15.15936438 13.50933456 16.73220745 15.95019765 17 21 C15.68 20.34 14.36 19.68 13 19 C12.90203125 19.69867188 12.8040625 20.39734375 12.703125 21.1171875 C12.55359375 22.02726562 12.4040625 22.93734375 12.25 23.875 C12.11078125 24.77992187 11.9715625 25.68484375 11.828125 26.6171875 C11 29 11 29 8.921875 30.3203125 C8.28765625 30.54460938 7.6534375 30.76890625 7 31 C6.7525 30.01 6.505 29.02 6.25 28 C3.92181869 20.0520707 0.69292361 14.96329167 -6 10 C-5.67 9.01 -5.34 8.02 -5 7 C-3.35 6.67 -1.7 6.34 0 6 C0 4.02 0 2.04 0 0 Z " fill="#050303" transform="translate(41,13)"/>
<path d="M0 0 C0.33 0 0.66 0 1 0 C1 8.91 1 17.82 1 27 C-7.91 27 -16.82 27 -26 27 C-23.16878598 25.58439299 -20.41256117 24.33191747 -17.5 23.125 C-13.93053624 21.56592388 -11.61863227 19.93286814 -9 17 C-8.34 17 -7.68 17 -7 17 C-6.34 15.35 -5.68 13.7 -5 12 C-4.34 12 -3.68 12 -3 12 C-2.87625 11.319375 -2.7525 10.63875 -2.625 9.9375 C-1.90899123 6.5722588 -0.97054875 3.29986575 0 0 Z " fill="#FDFDFC" transform="translate(63,37)"/>
<path d="M0 0 C8.91 0 17.82 0 27 0 C27 8.91 27 17.82 27 27 C26.67 27 26.34 27 26 27 C25.81824219 26.40832031 25.63648437 25.81664063 25.44921875 25.20703125 C23.15225836 17.98633014 20.56056906 13.28254061 15 8 C14.319375 7.195625 14.319375 7.195625 13.625 6.375 C9.8089447 3.14603013 4.87115726 1.73805413 0 1 C0 0.67 0 0.34 0 0 Z " fill="#FDFCF5" transform="translate(37,0)"/>
<path d="M0 0 C8.58 0 17.16 0 26 0 C23.86804364 1.06597818 21.73066077 2.12301551 19.5625 3.11328125 C9.25415202 7.93746239 4.97903308 16.04193384 0 26 C0 17.42 0 8.84 0 0 Z " fill="#FDFCF5" transform="translate(0,0)"/>
<path d="M0 0 C1.39054901 2.78109803 2.58989939 5.4478656 3.75 8.3125 C7.7909384 17.29400177 13.11420461 21.08497134 22 25 C23.32 25.66 24.64 26.32 26 27 C17.42 27 8.84 27 0 27 C0 18.09 0 9.18 0 0 Z " fill="#FDFCF4" transform="translate(0,37)"/>
<path d="M0 0 C1.12894876 0.93274109 2.25300876 1.87140122 3.375 2.8125 C4.00148438 3.33457031 4.62796875 3.85664063 5.2734375 4.39453125 C7 6 7 6 9 9 C7.68 10.32 6.36 11.64 5 13 C7.31 13 9.62 13 12 13 C12.75 15.25 12.75 15.25 13 18 C11.5625 20.375 11.5625 20.375 9 22 C4.69904198 22.21108996 0.6673821 21.29211381 -3 19 C-2.79375 17.906875 -2.5875 16.81375 -2.375 15.6875 C-1.59653475 11.9161599 -1.59653475 11.9161599 -4 9 C-3.625 6.8125 -3.625 6.8125 -3 5 C-1.35 4.67 0.3 4.34 2 4 C1.34 2.68 0.68 1.36 0 0 Z " fill="#F8CE65" transform="translate(22,24)"/>
<path d="M0 0 C0.33 2.64 0.66 5.28 1 8 C-4.63161955 9.747744 -7.40351979 10.28946918 -13 8 C-14.32 8 -15.64 8 -17 8 C-17.66 9.32 -18.32 10.64 -19 12 C-21.09350689 8.5980513 -21.17942163 5.94727588 -21 2 C-13.98770081 -0.78502663 -7.35082636 -2.45027545 0 0 Z " fill="#1F1C1A" transform="translate(41,12)"/>
<path d="M0 0 C0.5775 0.495 1.155 0.99 1.75 1.5 C4.10400629 3.36980013 4.10400629 3.36980013 8 3 C9.32 5.64 10.64 8.28 12 11 C7.66437185 13.16781407 6.50491 13.27312674 2 12 C-0.5847236 8.12291459 -0.62782738 5.61494043 -1 1 C-0.67 0.67 -0.34 0.34 0 0 Z " fill="#FCD05C" transform="translate(7,43)"/>
<path d="M0 0 C3.96 0.33 7.92 0.66 12 1 C12.66 2.65 13.32 4.3 14 6 C7.71428571 8.42857143 7.71428571 8.42857143 4 7 C4.99 6.67 5.98 6.34 7 6 C7 5.34 7 4.68 7 4 C6.21625 4.20625 5.4325 4.4125 4.625 4.625 C3.75875 4.74875 2.8925 4.8725 2 5 C1.34 4.34 0.68 3.68 0 3 C0 2.01 0 1.02 0 0 Z " fill="#FECE59" transform="translate(30,2)"/>
<path d="M0 0 C0.33 0 0.66 0 1 0 C1.65732077 3.84167472 1.79863764 7.17038817 1 11 C-2.1516896 15.41472626 -6.0535691 20.02115215 -11.328125 21.7734375 C-11.87984375 21.84820312 -12.4315625 21.92296875 -13 22 C-11.71937515 20.2925002 -10.38232443 18.62626404 -9 17 C-8.34 17 -7.68 17 -7 17 C-6.34 15.35 -5.68 13.7 -5 12 C-4.34 12 -3.68 12 -3 12 C-2.87625 11.319375 -2.7525 10.63875 -2.625 9.9375 C-1.90899123 6.5722588 -0.97054875 3.29986575 0 0 Z " fill="#FEF9E5" transform="translate(63,37)"/>
<path d="M0 0 C0.66 0.33 1.32 0.66 2 1 C-0.11929965 3.52685727 -1.60150322 4.86414882 -4.75 5.9375 C-9.12942352 6.02171968 -11.98805373 4.72928718 -16 3 C-15.67 2.34 -15.34 1.68 -15 1 C-14.25234375 1.09539063 -13.5046875 1.19078125 -12.734375 1.2890625 C-11.74953125 1.39992187 -10.7646875 1.51078125 -9.75 1.625 C-8.77546875 1.74101563 -7.8009375 1.85703125 -6.796875 1.9765625 C-3.82720122 2.00144803 -2.54913999 1.3873638 0 0 Z " fill="#1A130E" transform="translate(35,43)"/>
<path d="M0 0 C0.33 0 0.66 0 1 0 C1 1.98 1 3.96 1 6 C0.34 6 -0.32 6 -1 6 C-0.67 9.96 -0.34 13.92 0 18 C-0.66 18 -1.32 18 -2 18 C-4.33275297 14.70670169 -4.090875 11.93783234 -3.4921875 8.0390625 C-2.78306735 5.10127902 -1.49950581 2.6078362 0 0 Z " fill="#FCD061" transform="translate(4,16)"/>
<path d="M0 0 C2.0625 0.4375 2.0625 0.4375 4 1 C3.67 1.99 3.34 2.98 3 4 C3.928125 4.37125 3.928125 4.37125 4.875 4.75 C7.35068687 6.20628639 7.95125002 7.37812506 9 10 C8.52949219 9.65066406 8.05898438 9.30132812 7.57421875 8.94140625 C6.95160156 8.48636719 6.32898438 8.03132813 5.6875 7.5625 C5.07261719 7.11003906 4.45773438 6.65757813 3.82421875 6.19140625 C0.18703038 3.81594062 -2.96619545 3.89210963 -7.1875 3.9375 C-8.27417969 3.94652344 -9.36085938 3.95554687 -10.48046875 3.96484375 C-11.31191406 3.97644531 -12.14335937 3.98804688 -13 4 C-13 3.34 -13 2.68 -13 2 C-12.14535156 1.93941406 -11.29070313 1.87882813 -10.41015625 1.81640625 C-8.75306641 1.69072266 -8.75306641 1.69072266 -7.0625 1.5625 C-5.96035156 1.48128906 -4.85820313 1.40007813 -3.72265625 1.31640625 C-1.08890097 1.29581916 -1.08890097 1.29581916 0 0 Z " fill="#F1CE76" transform="translate(39,8)"/>
<path d="M0 0 C2 1 2 1 3.125 4.25 C3.85463482 7.37700635 4.19234975 9.82622905 4 13 C2 13 2 13 0.4375 11.8125 C-1.40702462 9.48679504 -1.78883056 7.95637218 -2 5 C-1.0625 2.1875 -1.0625 2.1875 0 0 Z " fill="#FCCF57" transform="translate(60,23)"/>
<path d="M0 0 C3 2 3 2 3.6875 5.125 C3.790625 6.07375 3.89375 7.0225 4 8 C2.68 7.34 1.36 6.68 0 6 C-0.33 8.31 -0.66 10.62 -1 13 C-1.99 12.67 -2.98 12.34 -4 12 C-3.67 9.36 -3.34 6.72 -3 4 C-2.01 4 -1.02 4 0 4 C0 2.68 0 1.36 0 0 Z " fill="#120904" transform="translate(54,26)"/>
<path d="M0 0 C1.9375 0.375 1.9375 0.375 4 1 C5.4783226 3.95664519 5.06032783 6.74229737 5 10 C4.01 10.33 3.02 10.66 2 11 C2 9.02 2 7.04 2 5 C0.68 4.67 -0.64 4.34 -2 4 C-1.34 2.68 -0.68 1.36 0 0 Z " fill="#080300" transform="translate(32,33)"/>
<path d="M0 0 C0.33 0 0.66 0 1 0 C1 1.98 1 3.96 1 6 C-0.98 6.33 -2.96 6.66 -5 7 C-5 6.34 -5 5.68 -5 5 C-6.32 5.33 -7.64 5.66 -9 6 C-8.67 5.01 -8.34 4.02 -8 3 C-6.8553125 3.0928125 -6.8553125 3.0928125 -5.6875 3.1875 C-2.95769419 3.26547287 -2.95769419 3.26547287 -1.25 1.5 C-0.8375 1.005 -0.425 0.51 0 0 Z " fill="#020305" transform="translate(18,35)"/>
<path d="M0 0 C0.66 0.33 1.32 0.66 2 1 C2 4.3 2 7.6 2 11 C0.35 11.33 -1.3 11.66 -3 12 C-2.01 8.04 -1.02 4.08 0 0 Z " fill="#F1CA6F" transform="translate(54,32)"/>
<path d="M0 0 C1.80411967 2.75924185 2.0127245 3.88972103 1.625 7.25 C1.41875 8.1575 1.2125 9.065 1 10 C0.34 9.67 -0.32 9.34 -1 9 C-1 7.35 -1 5.7 -1 4 C-1.4125 4.515625 -1.825 5.03125 -2.25 5.5625 C-2.8275 6.036875 -3.405 6.51125 -4 7 C-6.1875 6.6875 -6.1875 6.6875 -8 6 C-5.33333333 4 -2.66666667 2 0 0 Z " fill="#1B0B03" transform="translate(19,32)"/>
<path d="M0 0 C0 1.66666667 0 3.33333333 0 5 C-3.96 5 -7.92 5 -12 5 C-8.0377276 3.0188638 -4.15252251 1.52259159 0 0 Z " fill="#FDFAE2" transform="translate(49,59)"/>
<path d="M0 0 C1.875 0.3125 1.875 0.3125 4 1 C6 4 6 4 5.625 6.1875 C5.41875 6.785625 5.2125 7.38375 5 8 C2.5 6.8125 2.5 6.8125 0 5 C-0.3125 2.3125 -0.3125 2.3125 0 0 Z " fill="#FAD158" transform="translate(55,33)"/>
<path d="M0 0 C-1.98 0.99 -1.98 0.99 -4 2 C-4.08004482 5.5219721 -4.04005702 8.61981469 -3 12 C-3.99 12.33 -4.98 12.66 -6 13 C-7.46507646 10.06984708 -7.0213589 7.32231769 -6.9375 4.09375 C-6.85499134 1.93974478 -6.85499134 1.93974478 -8 0 C-4.71023192 -1.09658936 -3.28696233 -0.79953138 0 0 Z " fill="#F6D176" transform="translate(25,12)"/>
<path d="M0 0 C-0.33 1.98 -0.66 3.96 -1 6 C-1.99 6 -2.98 6 -4 6 C-4 4.33333333 -4 2.66666667 -4 1 C-5.65 1 -7.3 1 -9 1 C-5.64919071 -1.10976881 -3.77897651 -1.0497157 0 0 Z " fill="#EFCD74" transform="translate(35,38)"/>
<path d="M0 0 C3.3 0 6.6 0 10 0 C7.09867381 1.4506631 4.21417995 2.81727355 1.25 4.125 C0.45078125 4.47820313 -0.3484375 4.83140625 -1.171875 5.1953125 C-1.77515625 5.46085938 -2.3784375 5.72640625 -3 6 C-3 5.01 -3 4.02 -3 3 C-2.01 3 -1.02 3 0 3 C0 2.01 0 1.02 0 0 Z " fill="#FDFAE5" transform="translate(16,0)"/>
<path d="M0 0 C0.33 1.32 0.66 2.64 1 4 C-5.07027358 6.1583195 -10.59370576 6.20852314 -17 6 C-17 5.67 -17 5.34 -17 5 C-16.19175781 4.89042969 -15.38351563 4.78085937 -14.55078125 4.66796875 C-13.48214844 4.50941406 -12.41351563 4.35085937 -11.3125 4.1875 C-10.25675781 4.03667969 -9.20101562 3.88585938 -8.11328125 3.73046875 C-4.89806247 2.97608241 -2.71899677 1.84125013 0 0 Z " fill="#F4D277" transform="translate(45,49)"/>
<path d="M0 0 C1.32 0 2.64 0 4 0 C4.33 2.97 4.66 5.94 5 9 C1.13892543 6.42595029 1.05680308 4.38979741 0 0 Z " fill="#F8D171" transform="translate(2,42)"/>
<path d="M0 0 C1.32 1.32 2.64 2.64 4 4 C2.35 4.33 0.7 4.66 -1 5 C-1.33 5.99 -1.66 6.98 -2 8 C-3.32 7.67 -4.64 7.34 -6 7 C-4.02 4.69 -2.04 2.38 0 0 Z " fill="#160B08" transform="translate(32,30)"/>
<path d="M0 0 C3.63 0 7.26 0 11 0 C11 0.99 11 1.98 11 3 C11.66 3 12.32 3 13 3 C12.67 3.66 12.34 4.32 12 5 C10.948125 4.525625 9.89625 4.05125 8.8125 3.5625 C5.89824149 2.30676259 3.15253086 1.47765619 0 1 C0 0.67 0 0.34 0 0 Z " fill="#FEFBE1" transform="translate(37,0)"/>
<path d="M0 0 C3.96 0 7.92 0 12 0 C11.67 1.32 11.34 2.64 11 4 C9.53984709 3.71758359 8.08190207 3.42373386 6.625 3.125 C5.81289063 2.96257813 5.00078125 2.80015625 4.1640625 2.6328125 C2 2 2 2 0 0 Z " fill="#F8D375" transform="translate(18,60)"/>
<path d="M0 0 C2.64 0 5.28 0 8 0 C8 1.65 8 3.3 8 5 C4.20411134 4.45773019 2.52788007 2.79872437 0 0 Z " fill="#F9D472" transform="translate(10,55)"/>
<path d="M0 0 C1.051875 0.78375 2.10375 1.5675 3.1875 2.375 C6.01696802 4.40508579 8.67338936 5.89112979 12 7 C8.30581799 8.231394 5.7943739 7.64432764 2 7 C1.34 4.69 0.68 2.38 0 0 Z " fill="#F2D271" transform="translate(15,46)"/>
<path d="M0 0 C0.66 0.33 1.32 0.66 2 1 C-1.78817836 4.13877635 -5.59695559 6.79847779 -10 9 C-8.50521886 5.19510255 -6.30557786 3.33809165 -3 1 C-2.01 0.67 -1.02 0.34 0 0 Z " fill="#F8D682" transform="translate(18,3)"/>
<path d="M0 0 C0.33 0 0.66 0 1 0 C1 1.98 1 3.96 1 6 C0.01 6.495 0.01 6.495 -1 7 C-1.65555119 9.52733235 -1.65555119 9.52733235 -2 12 C-2.66 12 -3.32 12 -4 12 C-2 3.42857143 -2 3.42857143 0 0 Z " fill="#F6D27F" transform="translate(4,16)"/>
<path d="M0 0 C4.37859255 0.50522222 6.81651224 3.17827222 10 6 C6.79604584 6 4.90600261 5.25664978 2 4 C2 3.01 2 2.02 2 1 C1.34 0.67 0.68 0.34 0 0 Z " fill="#F7D57B" transform="translate(46,4)"/>
<path d="M0 0 C0.33 0.99 0.66 1.98 1 3 C-1.97 5.475 -1.97 5.475 -5 8 C-5.66 7.67 -6.32 7.34 -7 7 C-5.71034824 5.62437146 -4.37310707 4.29233607 -3 3 C-2.34 3 -1.68 3 -1 3 C-0.67 2.01 -0.34 1.02 0 0 Z " fill="#FEF1D9" transform="translate(57,51)"/>
<path d="M0 0 C0 0.66 0 1.32 0 2 C-2.31 2.66 -4.62 3.32 -7 4 C-7.33 3.01 -7.66 2.02 -8 1 C-5.07175348 0.02391783 -3.04386724 -0.08226668 0 0 Z " fill="#19150C" transform="translate(43,50)"/>
<path d="M0 0 C7.75 1.625 7.75 1.625 10 5 C8.51800098 4.55090939 7.03944764 4.09043436 5.5625 3.625 C4.73878906 3.36976562 3.91507813 3.11453125 3.06640625 2.8515625 C1 2 1 2 0 0 Z " fill="#E8E7EB" transform="translate(21,47)"/>
<path d="M0 0 C3.96 1.98 3.96 1.98 8 4 C6.02 4.99 6.02 4.99 4 6 C2.62437146 4.71034824 1.29233607 3.37310707 0 2 C0 1.34 0 0.68 0 0 Z " fill="#F3CD73" transform="translate(7,41)"/>
<path d="M0 0 C2.97 0.495 2.97 0.495 6 1 C5.67 1.99 5.34 2.98 5 4 C3.0625 3.6875 3.0625 3.6875 1 3 C0.67 2.01 0.34 1.02 0 0 Z " fill="#F8D551" transform="translate(30,3)"/>
</svg>
