<?xml version="1.0" standalone="no"?>
<!DOCTYPE svg PUBLIC "-//W3C//DTD SVG 20010904//EN"
 "http://www.w3.org/TR/2001/REC-SVG-20010904/DTD/svg10.dtd">
<svg version="1.0" xmlns="http://www.w3.org/2000/svg"
 width="64.000000pt" height="64.000000pt" viewBox="0 0 64.000000 64.000000"
 preserveAspectRatio="xMidYMid meet">

<g transform="translate(0.000000,64.000000) scale(0.100000,-0.100000)"
fill="#000000" stroke="none">
<path d="M228 419 c-31 -17 -20 -29 27 -29 l45 0 0 -88 c0 -91 8 -112 42 -112
15 0 17 3 8 19 -5 11 -10 51 -10 90 0 56 -3 72 -17 80 -14 8 -7 10 33 11 46 0
74 12 74 32 0 12 -182 9 -202 -3z"/>
</g>
</svg>
